<?xml version="1.0" encoding="UTF-8" standalone="no"?>
<!DOCTYPE svg PUBLIC "-//W3C//DTD SVG 20010904//EN"
              "http://www.w3.org/TR/2001/REC-SVG-20010904/DTD/svg10.dtd">

<svg xmlns="http://www.w3.org/2000/svg"
     width="124.972in" height="62.4722in"
     viewBox="0 0 8998 4498">
  <path id="Selection #1"
        fill="none" stroke="black" stroke-width="1"
        d="M 8937.00,632.15
           C 8937.00,632.15 8945.00,632.15 8945.00,632.15
             8945.00,632.15 8959.00,632.15 8959.00,632.15
             8974.06,632.18 8989.78,640.54 8995.52,655.00
             8999.67,665.46 8997.94,690.64 8996.08,702.00
             8996.08,702.00 8993.17,720.00 8993.17,720.00
             8992.01,731.79 8993.23,749.09 8979.00,753.21
             8976.10,754.05 8973.00,754.05 8970.00,753.99
             8955.70,753.66 8942.24,750.28 8929.00,745.00
             8924.18,743.08 8917.12,740.35 8913.09,737.21
             8909.41,734.34 8907.27,730.58 8906.48,726.00
             8905.84,722.30 8906.85,719.67 8905.17,717.43
             8903.82,715.61 8901.11,714.88 8899.00,714.47
             8899.00,714.47 8878.00,713.18 8878.00,713.18
             8870.15,713.75 8863.07,716.35 8857.04,721.47
             8848.40,728.79 8847.54,735.05 8834.00,739.91
             8826.48,742.61 8817.78,743.59 8810.00,741.76
             8810.00,741.76 8791.00,736.39 8791.00,736.39
             8784.07,735.90 8775.38,741.75 8765.00,741.99
             8758.39,742.14 8745.78,740.73 8741.74,734.89
             8737.97,729.45 8741.34,720.73 8742.85,715.00
             8746.68,700.45 8751.24,675.35 8765.00,667.36
             8773.01,662.71 8778.60,663.63 8787.00,662.83
             8787.00,662.83 8824.00,660.00 8824.00,660.00
             8824.00,660.00 8859.00,663.70 8859.00,663.70
             8866.11,662.71 8876.25,657.40 8883.00,654.31
             8900.73,646.19 8917.59,636.02 8937.00,632.15 Z
           M 8661.00,651.46
           C 8666.90,650.65 8671.89,650.64 8676.67,654.79
             8685.95,662.84 8679.45,674.15 8669.00,676.48
             8663.20,677.78 8651.75,678.65 8646.00,677.32
             8641.78,676.34 8637.98,674.74 8637.24,669.98
             8635.56,659.17 8652.78,653.29 8661.00,651.46 Z
           M 8410.00,710.43
           C 8422.57,708.88 8442.50,711.62 8450.03,723.01
             8454.35,729.54 8454.65,737.62 8457.99,743.00
             8462.75,750.67 8470.29,752.95 8473.85,758.17
             8475.46,760.53 8476.11,763.16 8475.88,766.00
             8475.10,775.62 8461.78,778.36 8454.00,779.56
             8441.95,781.43 8435.06,774.90 8426.00,768.43
             8426.00,768.43 8406.00,755.37 8406.00,755.37
             8394.11,749.43 8383.04,752.74 8372.00,748.90
             8365.99,746.81 8360.10,742.81 8359.23,736.00
             8358.31,728.85 8364.11,723.01 8370.00,719.99
             8378.93,715.42 8399.56,712.14 8410.00,710.43 Z
           M 8697.00,717.44
           C 8707.08,716.37 8726.93,725.22 8731.55,734.04
             8737.27,744.98 8722.48,761.49 8713.00,764.35
             8704.46,766.93 8698.02,761.66 8690.00,761.57
             8690.00,761.57 8665.00,764.82 8665.00,764.82
             8665.00,764.82 8643.00,759.16 8643.00,759.16
             8643.00,759.16 8616.00,759.16 8616.00,759.16
             8610.04,758.99 8604.13,758.63 8599.01,755.15
             8590.04,749.04 8586.42,735.58 8594.21,727.09
             8596.03,725.11 8598.62,723.18 8601.00,721.92
             8611.88,716.13 8620.94,721.03 8630.00,727.42
             8634.47,730.58 8639.25,734.91 8645.00,734.91
             8650.94,734.91 8657.31,729.36 8663.00,726.87
             8669.15,724.19 8690.04,718.73 8697.00,717.44 Z
           M 8282.00,766.45
           C 8285.91,766.12 8290.63,766.44 8293.57,769.43
             8297.47,773.38 8297.47,784.25 8287.00,786.52
             8279.77,788.09 8272.17,784.73 8265.00,784.18
             8259.60,783.77 8255.00,786.01 8250.00,785.92
             8246.95,785.86 8242.86,784.76 8242.86,780.96
             8242.86,777.20 8246.83,775.06 8250.00,774.33
             8250.00,774.33 8262.00,772.24 8262.00,772.24
             8270.55,769.95 8269.95,768.60 8282.00,766.45 Z
           M 8745.00,783.47
           C 8755.04,782.07 8767.45,786.30 8774.67,793.47
             8782.80,801.53 8778.66,810.50 8768.00,812.53
             8759.75,814.11 8745.09,809.76 8739.21,803.79
             8731.60,796.07 8734.18,786.15 8745.00,783.47 Z
           M 482.00,787.52
           C 489.68,786.30 491.95,787.43 499.00,788.04
             499.00,788.04 508.00,788.04 508.00,788.04
             515.46,788.97 523.73,791.40 531.00,793.24
             531.00,793.24 541.00,795.11 541.00,795.11
             541.00,795.11 548.00,798.36 548.00,798.36
             555.78,801.87 563.70,802.26 565.38,813.00
             567.13,824.22 551.52,832.49 542.00,831.91
             524.06,830.81 515.42,817.96 497.00,819.09
             497.00,819.09 472.00,822.52 472.00,822.52
             462.06,824.63 465.43,825.92 453.00,826.00
             442.78,826.07 444.22,829.04 437.00,829.70
             429.35,830.39 420.16,826.12 421.62,817.00
             422.59,810.98 429.03,806.17 434.00,803.34
             442.91,798.26 445.59,799.20 454.00,796.66
             454.00,796.66 469.00,791.10 469.00,791.10
             469.00,791.10 482.00,787.52 482.00,787.52 Z
           M 8293.00,795.53
           C 8299.51,795.37 8305.71,797.91 8312.00,799.35
             8317.61,800.64 8324.31,801.42 8328.66,805.53
             8334.94,811.45 8336.43,826.78 8327.96,831.91
             8323.47,834.63 8317.09,833.94 8312.00,834.00
             8312.00,834.00 8296.00,835.96 8296.00,835.96
             8296.00,835.96 8288.00,835.96 8288.00,835.96
             8288.00,835.96 8272.00,837.00 8272.00,837.00
             8272.00,837.00 8253.00,834.56 8253.00,834.56
             8246.03,835.39 8241.02,841.65 8232.00,842.47
             8229.11,842.74 8225.76,842.08 8223.00,841.23
             8211.28,837.61 8207.68,829.10 8204.89,818.00
             8202.98,810.37 8202.05,802.76 8210.02,798.09
             8219.29,792.64 8231.07,797.03 8237.96,804.02
             8241.58,807.68 8246.26,814.57 8252.00,814.44
             8255.60,814.36 8261.73,809.92 8265.00,808.01
             8272.06,803.88 8285.19,796.77 8293.00,795.53 Z
           M 535.00,859.42
           C 543.46,858.39 558.97,859.01 567.00,861.67
             567.00,861.67 583.00,869.61 583.00,869.61
             589.13,872.22 603.29,875.07 610.00,875.00
             624.13,874.84 631.92,868.22 637.00,866.64
             637.00,866.64 677.00,861.00 677.00,861.00
             688.69,860.87 701.67,862.48 708.89,873.04
             713.81,880.22 712.94,888.36 715.47,896.00
             717.16,901.13 723.10,908.72 726.62,913.00
             729.38,916.36 744.80,931.13 748.00,932.86
             754.86,936.59 759.62,932.78 767.96,940.21
             778.14,949.28 773.79,954.37 778.68,963.00
             783.36,971.26 788.73,972.63 794.24,980.00
             798.68,985.95 800.39,990.91 803.87,997.00
             806.57,1001.73 809.70,1005.42 810.67,1011.00
             812.80,1023.13 805.36,1028.46 794.00,1027.96
             783.38,1027.49 770.80,1017.98 762.00,1012.41
             762.00,1012.41 754.00,1008.47 754.00,1008.47
             754.00,1008.47 744.00,1001.67 744.00,1001.67
             744.00,1001.67 723.00,993.46 723.00,993.46
             723.00,993.46 707.00,988.29 707.00,988.29
             694.48,983.58 681.67,977.07 668.00,977.00
             668.00,977.00 642.00,977.00 642.00,977.00
             630.51,976.98 631.73,975.52 622.00,972.92
             616.02,971.33 615.30,971.95 608.00,969.31
             601.02,966.77 594.36,963.49 587.00,962.09
             579.38,960.65 571.75,959.04 564.00,959.00
             557.54,958.97 533.54,953.93 527.00,951.96
             527.00,951.96 518.00,948.40 518.00,948.40
             497.17,941.27 482.36,937.70 475.02,914.00
             473.78,909.98 472.80,906.26 473.10,902.00
             473.34,898.37 474.81,894.45 476.00,891.00
             482.86,871.15 496.55,866.62 515.00,862.49
             515.00,862.49 524.00,860.18 524.00,860.18
             524.00,860.18 535.00,859.42 535.00,859.42 Z
           M 887.00,985.64
           C 900.39,982.95 904.93,989.68 914.00,997.83
             914.00,997.83 926.96,1008.09 926.96,1008.09
             931.53,1011.98 937.71,1018.40 935.26,1025.00
             932.41,1032.68 921.08,1034.93 914.00,1036.85
             901.90,1040.12 890.97,1041.23 881.09,1031.82
             867.95,1019.29 868.45,992.64 887.00,985.64 Z
           M 942.00,1054.65
           C 952.83,1052.68 957.63,1062.62 957.66,1072.00
             957.68,1076.12 955.46,1084.77 954.37,1089.00
             953.07,1094.02 951.63,1099.82 945.98,1101.49
             936.52,1104.28 924.03,1087.99 923.20,1080.00
             922.30,1071.34 934.52,1057.78 942.00,1054.65 Z
           M 1081.00,1054.43
           C 1104.58,1051.53 1109.56,1072.80 1124.00,1085.90
             1131.51,1092.70 1136.77,1091.22 1141.28,1098.02
             1146.85,1106.42 1143.81,1120.94 1128.00,1119.82
             1123.68,1119.51 1119.37,1118.33 1115.00,1118.84
             1109.22,1119.51 1107.39,1121.89 1098.00,1122.00
             1089.71,1122.09 1078.97,1118.74 1072.00,1123.00
             1060.49,1130.06 1060.81,1147.77 1049.00,1149.77
             1040.16,1151.27 1032.49,1144.85 1029.47,1137.00
             1027.06,1130.74 1027.01,1121.68 1027.00,1115.00
             1027.00,1115.00 1025.00,1088.00 1025.00,1088.00
             1024.94,1082.13 1024.96,1076.04 1028.80,1071.18
             1032.56,1066.42 1040.29,1063.72 1046.00,1062.15
             1046.00,1062.15 1081.00,1054.43 1081.00,1054.43 Z
           M 1173.00,1066.46
           C 1179.65,1065.54 1188.67,1066.17 1193.61,1071.34
             1203.14,1081.32 1191.41,1092.85 1181.00,1094.67
             1174.73,1095.77 1167.36,1094.78 1162.18,1090.89
             1154.14,1084.84 1156.36,1075.09 1164.02,1069.85
             1166.95,1067.85 1169.62,1067.22 1173.00,1066.46 Z
           M 7153.00,1163.61
           C 7159.83,1162.32 7168.18,1164.45 7162.99,1172.96
             7159.90,1178.04 7143.86,1188.31 7138.00,1190.25
             7138.00,1190.25 7126.00,1193.41 7126.00,1193.41
             7119.28,1196.53 7118.24,1200.98 7110.00,1206.79
             7110.00,1206.79 7090.11,1218.39 7090.11,1218.39
             7084.35,1223.47 7087.02,1227.82 7084.74,1234.00
             7081.68,1242.30 7074.00,1244.27 7066.00,1243.96
             7057.80,1243.64 7042.32,1241.35 7036.39,1235.47
             7028.44,1227.58 7032.90,1211.92 7038.63,1204.00
             7041.12,1200.57 7044.56,1197.87 7048.00,1195.44
             7059.76,1187.14 7068.73,1184.74 7082.00,1180.33
             7087.44,1178.52 7096.34,1175.78 7102.00,1176.18
             7107.14,1176.55 7112.92,1178.43 7118.00,1177.53
             7118.00,1177.53 7153.00,1163.61 7153.00,1163.61 Z
           M 1444.00,1215.56
           C 1463.99,1212.06 1467.52,1229.85 1489.00,1228.49
             1489.00,1228.49 1513.00,1226.09 1513.00,1226.09
             1525.87,1226.88 1532.10,1235.87 1539.75,1245.00
             1539.75,1245.00 1561.91,1269.00 1561.91,1269.00
             1561.91,1269.00 1572.09,1281.00 1572.09,1281.00
             1576.85,1286.11 1584.76,1291.92 1588.15,1297.00
             1594.71,1306.83 1589.20,1313.21 1596.39,1321.96
             1599.63,1325.89 1603.43,1327.54 1608.00,1329.40
             1613.39,1331.58 1619.24,1333.65 1625.00,1334.56
             1637.48,1336.53 1647.18,1335.19 1656.68,1346.04
             1668.74,1359.81 1664.59,1377.87 1670.81,1394.00
             1670.81,1394.00 1680.88,1419.00 1680.88,1419.00
             1685.48,1427.06 1691.61,1432.33 1696.68,1443.00
             1696.68,1443.00 1711.31,1477.00 1711.31,1477.00
             1711.31,1477.00 1717.09,1496.00 1717.09,1496.00
             1723.89,1512.49 1742.43,1512.18 1744.69,1531.00
             1746.21,1543.74 1736.28,1549.09 1729.94,1558.00
             1726.20,1563.25 1725.08,1568.67 1725.00,1575.00
             1724.90,1583.63 1725.16,1589.12 1731.19,1596.00
             1739.20,1605.14 1751.19,1608.50 1749.90,1623.00
             1749.07,1632.32 1739.04,1649.02 1731.00,1653.64
             1725.54,1656.77 1719.78,1656.75 1716.10,1659.09
             1712.25,1661.53 1710.33,1667.04 1708.22,1671.00
             1704.70,1677.60 1700.60,1682.54 1693.00,1684.32
             1686.08,1685.93 1675.13,1681.84 1668.00,1680.13
             1653.31,1676.61 1637.38,1675.92 1627.91,1662.00
             1624.76,1657.37 1615.46,1634.55 1614.46,1629.00
             1614.46,1629.00 1613.53,1614.00 1613.53,1614.00
             1612.59,1608.99 1610.00,1604.51 1607.75,1600.00
             1605.18,1594.83 1601.92,1584.80 1596.96,1582.17
             1594.35,1580.79 1590.89,1581.00 1588.00,1581.00
             1588.00,1581.00 1574.00,1581.00 1574.00,1581.00
             1563.69,1580.88 1550.85,1578.98 1543.04,1571.82
             1543.04,1571.82 1529.56,1555.29 1529.56,1555.29
             1524.92,1550.49 1518.51,1547.28 1515.14,1541.99
             1511.51,1536.28 1512.93,1531.15 1508.36,1525.04
             1504.11,1519.35 1493.09,1514.68 1486.18,1506.99
             1473.58,1492.94 1474.21,1475.39 1474.00,1458.00
             1473.81,1442.97 1465.97,1442.17 1459.47,1432.00
             1453.17,1421.88 1454.12,1408.40 1459.47,1398.00
             1467.04,1382.82 1477.49,1386.39 1491.00,1387.84
             1491.00,1387.84 1510.00,1389.29 1510.00,1389.29
             1510.00,1389.29 1520.00,1391.45 1520.00,1391.45
             1525.77,1392.33 1534.01,1389.32 1531.19,1382.00
             1525.29,1366.66 1508.98,1363.66 1495.00,1359.71
             1489.35,1358.11 1480.58,1355.96 1475.00,1358.15
             1469.39,1360.34 1465.60,1366.20 1460.00,1370.34
             1448.69,1378.31 1433.25,1379.54 1422.04,1370.34
             1411.07,1361.60 1409.52,1342.99 1405.71,1330.00
             1404.46,1325.02 1402.03,1317.71 1405.71,1313.14
             1410.89,1306.26 1423.88,1309.87 1431.00,1306.43
             1442.79,1300.73 1440.88,1282.85 1441.00,1272.00
             1441.00,1272.00 1442.52,1252.00 1442.52,1252.00
             1440.75,1241.21 1426.53,1227.44 1439.18,1217.85
             1440.94,1216.52 1442.02,1216.25 1444.00,1215.56 Z
           M 1183.02,1342.57
           C 1191.83,1340.99 1204.01,1344.52 1209.35,1352.02
             1215.15,1360.16 1213.82,1374.33 1203.00,1377.43
             1189.81,1381.21 1184.13,1369.04 1180.20,1359.00
             1177.80,1352.86 1175.55,1345.74 1183.02,1342.57 Z
           M 6729.00,1522.56
           C 6734.97,1521.67 6739.24,1523.35 6739.89,1530.00
             6740.67,1537.96 6733.71,1549.04 6726.00,1551.35
             6716.80,1554.11 6714.29,1545.18 6715.18,1538.00
             6716.14,1530.32 6721.98,1525.00 6729.00,1522.56 Z
           M 6712.00,1591.65
           C 6730.55,1587.98 6731.22,1615.43 6717.00,1619.43
             6701.63,1623.76 6697.36,1597.94 6712.00,1591.65 Z
           M 1538.00,1662.44
           C 1548.89,1661.28 1566.10,1665.43 1572.44,1675.04
             1576.57,1681.29 1575.59,1686.57 1581.31,1697.00
             1585.01,1703.73 1596.75,1719.29 1602.28,1724.56
             1613.56,1735.31 1632.35,1735.03 1640.35,1746.04
             1644.88,1752.27 1642.90,1758.22 1646.09,1766.00
             1646.09,1766.00 1655.88,1783.00 1655.88,1783.00
             1658.26,1789.16 1658.37,1797.39 1659.44,1804.00
             1660.67,1811.63 1662.90,1816.94 1663.00,1825.00
             1663.00,1825.00 1661.10,1856.00 1661.10,1856.00
             1659.54,1862.52 1654.62,1871.61 1656.88,1878.00
             1658.92,1883.80 1665.31,1889.25 1670.00,1893.00
             1678.36,1899.67 1686.48,1904.78 1692.45,1914.00
             1700.18,1925.92 1701.48,1937.68 1704.42,1951.00
             1704.42,1951.00 1712.34,1981.00 1712.34,1981.00
             1712.34,1981.00 1714.22,1995.00 1714.22,1995.00
             1715.69,2002.86 1725.94,2006.80 1732.00,2011.15
             1732.00,2011.15 1753.35,2027.21 1753.35,2027.21
             1757.36,2032.12 1759.16,2043.73 1758.98,2050.00
             1758.82,2056.14 1755.79,2061.88 1754.42,2068.00
             1752.89,2074.87 1752.86,2086.77 1748.58,2091.90
             1741.95,2099.86 1727.39,2097.98 1725.60,2108.00
             1725.60,2108.00 1726.91,2122.00 1726.91,2122.00
             1726.91,2122.00 1727.44,2144.00 1727.44,2144.00
             1728.03,2147.63 1729.27,2152.30 1733.04,2153.87
             1737.33,2155.65 1742.31,2149.79 1744.91,2147.00
             1752.88,2138.44 1760.43,2128.18 1759.96,2116.00
             1759.96,2116.00 1759.00,2102.00 1759.00,2102.00
             1759.14,2090.14 1764.00,2090.11 1768.33,2081.00
             1771.17,2075.03 1768.93,2071.51 1771.57,2066.00
             1776.62,2055.46 1787.97,2055.78 1790.38,2069.00
             1790.38,2069.00 1791.46,2078.00 1791.46,2078.00
             1793.20,2087.72 1796.62,2094.52 1795.91,2105.00
             1795.29,2114.18 1790.03,2127.34 1796.42,2134.89
             1804.66,2144.65 1813.89,2133.34 1825.00,2133.34
             1838.02,2133.34 1850.73,2146.92 1855.65,2158.00
             1861.84,2171.92 1858.06,2182.16 1851.76,2195.00
             1848.02,2202.61 1842.24,2215.97 1847.23,2223.91
             1849.70,2227.86 1853.97,2230.19 1858.00,2232.24
             1863.00,2234.80 1868.35,2237.38 1874.00,2237.99
             1883.47,2239.00 1892.61,2235.40 1902.00,2235.04
             1930.13,2233.95 1954.28,2260.32 1944.10,2283.00
             1937.45,2297.81 1922.01,2303.08 1919.39,2315.00
             1915.66,2331.98 1941.68,2344.74 1956.00,2343.91
             1963.89,2343.45 1973.49,2340.83 1972.46,2331.00
             1971.37,2319.40 1966.54,2310.12 1972.46,2298.01
             1980.18,2281.90 1997.85,2291.48 2009.00,2298.01
             2012.50,2300.06 2015.93,2302.05 2018.67,2305.09
             2025.34,2312.50 2028.87,2324.22 2029.83,2334.00
             2029.83,2334.00 2030.61,2343.00 2030.61,2343.00
             2032.21,2352.02 2035.21,2357.72 2034.99,2367.00
             2034.70,2378.94 2027.69,2381.58 2022.34,2391.00
             2018.10,2398.45 2015.21,2413.38 2015.01,2422.00
             2014.55,2442.69 2021.62,2453.51 2026.26,2472.00
             2030.07,2487.18 2024.87,2501.87 2033.97,2516.00
             2037.54,2521.55 2044.72,2527.09 2050.00,2531.12
             2053.25,2533.59 2061.12,2539.91 2065.00,2540.22
             2069.78,2540.60 2073.13,2535.48 2075.41,2532.00
             2079.49,2525.77 2082.91,2520.49 2091.00,2519.56
             2098.21,2518.72 2105.07,2523.83 2111.00,2527.14
             2125.22,2535.07 2143.02,2540.73 2141.96,2561.00
             2141.24,2574.64 2127.97,2577.14 2117.00,2575.00
             2111.90,2574.00 2105.41,2571.38 2101.44,2576.15
             2096.96,2581.53 2102.76,2590.61 2104.99,2596.00
             2110.43,2609.13 2109.88,2613.66 2111.17,2627.00
             2111.17,2627.00 2112.83,2638.00 2112.83,2638.00
             2113.31,2642.66 2113.74,2653.17 2115.57,2657.00
             2121.19,2668.77 2135.28,2669.69 2146.00,2674.00
             2165.47,2681.83 2174.44,2688.82 2188.96,2704.00
             2194.67,2709.97 2201.53,2717.45 2202.45,2726.00
             2204.24,2742.69 2181.92,2743.51 2183.20,2757.00
             2184.28,2768.37 2196.10,2773.32 2198.98,2779.00
             2200.33,2781.68 2199.86,2785.03 2200.30,2788.00
             2201.06,2793.10 2203.30,2797.28 2207.09,2800.79
             2212.90,2806.16 2222.11,2807.92 2225.15,2812.21
             2229.77,2818.74 2225.55,2828.88 2231.70,2838.00
             2235.85,2844.17 2247.75,2854.30 2255.94,2852.48
             2259.09,2851.78 2259.55,2849.75 2258.53,2846.98
             2257.41,2843.95 2252.22,2837.36 2251.31,2830.00
             2250.39,2822.49 2255.39,2816.21 2250.30,2809.09
             2248.09,2805.99 2244.14,2803.79 2241.30,2800.83
             2236.72,2796.06 2236.38,2793.52 2230.00,2788.76
             2222.91,2783.47 2219.77,2784.16 2214.62,2776.00
             2212.03,2771.91 2207.88,2765.99 2208.62,2761.00
             2209.20,2757.06 2218.78,2737.83 2221.36,2734.00
             2223.44,2730.91 2229.25,2725.13 2229.46,2722.00
             2229.74,2717.88 2223.72,2712.72 2221.00,2710.00
             2216.86,2705.85 2212.61,2702.00 2209.46,2697.00
             2205.10,2690.06 2201.96,2681.74 2195.96,2676.11
             2187.82,2668.46 2179.78,2670.39 2170.00,2668.53
             2170.00,2668.53 2146.00,2659.86 2146.00,2659.86
             2137.86,2656.87 2128.19,2651.03 2129.20,2641.00
             2130.61,2626.88 2143.69,2631.46 2153.00,2628.04
             2163.93,2624.01 2169.52,2615.10 2174.09,2612.22
             2178.52,2609.44 2194.58,2606.82 2200.00,2607.04
             2207.01,2607.32 2211.45,2609.97 2216.00,2610.67
             2221.91,2611.59 2237.16,2607.69 2241.96,2604.20
             2248.51,2599.44 2249.21,2593.38 2252.88,2587.00
             2257.94,2578.20 2265.83,2572.96 2276.00,2572.18
             2283.73,2571.60 2296.48,2577.12 2303.00,2576.61
             2307.93,2576.23 2314.07,2572.59 2319.00,2570.86
             2324.77,2568.84 2328.03,2568.93 2334.00,2569.00
             2345.32,2569.14 2355.59,2573.65 2366.00,2577.58
             2377.08,2581.76 2387.44,2585.05 2395.83,2594.04
             2406.23,2605.18 2403.52,2613.40 2412.02,2619.30
             2415.61,2621.80 2425.79,2624.62 2433.00,2629.79
             2439.96,2634.77 2444.63,2642.21 2453.00,2646.60
             2453.00,2646.60 2482.00,2657.27 2482.00,2657.27
             2492.06,2662.30 2498.68,2669.46 2507.00,2676.72
             2513.50,2682.38 2521.86,2688.80 2529.00,2693.66
             2539.26,2700.64 2550.67,2707.22 2551.81,2721.00
             2552.70,2731.75 2545.87,2737.33 2542.99,2745.00
             2540.31,2752.14 2544.36,2756.61 2541.85,2763.00
             2540.83,2765.61 2539.37,2767.45 2536.96,2768.91
             2536.96,2768.91 2512.00,2777.42 2512.00,2777.42
             2504.07,2780.44 2499.33,2783.24 2492.00,2787.26
             2489.06,2788.87 2485.48,2790.88 2487.37,2794.86
             2489.72,2799.81 2503.72,2800.06 2508.78,2804.56
             2513.89,2809.10 2513.12,2817.77 2514.76,2824.00
             2515.39,2826.39 2516.72,2830.76 2519.22,2831.76
             2521.81,2832.79 2525.72,2829.98 2528.00,2828.78
             2534.03,2825.62 2539.19,2823.85 2546.00,2823.17
             2555.45,2822.22 2563.86,2825.16 2573.00,2826.75
             2582.72,2828.44 2594.99,2829.07 2604.00,2832.87
             2614.42,2837.28 2619.69,2842.67 2624.13,2853.00
             2626.93,2859.52 2628.06,2867.78 2633.19,2872.79
             2638.63,2878.11 2647.24,2878.83 2656.99,2888.09
             2656.99,2888.09 2675.29,2911.00 2675.29,2911.00
             2675.29,2911.00 2687.91,2923.00 2687.91,2923.00
             2693.08,2928.52 2699.33,2938.19 2702.73,2945.00
             2702.73,2945.00 2711.06,2970.00 2711.06,2970.00
             2714.03,2977.82 2719.55,2987.97 2720.70,2996.00
             2722.50,3008.54 2715.47,3012.67 2715.29,3020.00
             2715.10,3027.34 2730.11,3040.68 2718.89,3046.35
             2717.89,3046.86 2716.11,3047.33 2715.00,3047.52
             2703.33,3049.49 2700.87,3038.76 2698.04,3035.23
             2695.84,3032.50 2693.13,3031.72 2690.42,3034.33
             2681.93,3042.48 2695.03,3051.69 2696.70,3063.00
             2699.08,3079.09 2689.07,3098.00 2684.00,3113.00
             2681.61,3120.11 2678.63,3128.52 2680.50,3136.00
             2683.51,3148.02 2695.89,3152.61 2703.67,3162.00
             2710.69,3170.47 2711.50,3181.60 2724.00,3185.11
             2730.62,3187.13 2737.32,3185.08 2744.00,3185.11
             2747.85,3184.96 2751.24,3184.91 2755.00,3185.93
             2766.87,3189.14 2780.73,3201.17 2781.81,3214.00
             2782.38,3220.70 2776.46,3236.91 2777.09,3248.00
             2777.85,3261.32 2785.38,3282.07 2772.96,3291.36
             2760.53,3300.67 2734.76,3292.43 2727.46,3307.01
             2722.49,3316.93 2736.01,3327.36 2744.00,3330.30
             2749.70,3332.41 2761.05,3335.50 2767.00,3335.91
             2776.84,3336.60 2790.11,3334.11 2800.00,3333.08
             2800.00,3333.08 2814.00,3333.08 2814.00,3333.08
             2814.00,3333.08 2836.00,3331.21 2836.00,3331.21
             2845.02,3331.72 2853.10,3335.79 2861.00,3339.75
             2866.07,3342.30 2870.26,3344.17 2873.53,3349.09
             2878.02,3355.84 2878.01,3361.32 2878.00,3369.00
             2877.98,3380.08 2873.57,3390.75 2875.82,3397.00
             2877.53,3401.77 2885.02,3410.64 2888.35,3415.00
             2894.78,3423.43 2902.64,3436.48 2904.54,3447.00
             2906.34,3456.98 2903.75,3466.82 2900.07,3476.00
             2897.83,3481.28 2894.75,3486.80 2900.07,3491.37
             2900.07,3491.37 2921.00,3503.16 2921.00,3503.16
             2930.24,3509.91 2933.75,3517.23 2942.00,3524.91
             2942.00,3524.91 2960.91,3539.18 2960.91,3539.18
             2968.54,3546.47 2970.80,3557.29 2987.00,3569.99
             2987.00,3569.99 3011.00,3586.22 3011.00,3586.22
             3018.35,3590.13 3027.69,3593.55 3034.00,3598.52
             3046.59,3608.41 3049.05,3616.94 3069.00,3630.96
             3074.77,3635.02 3080.06,3638.41 3087.00,3640.10
             3095.67,3642.21 3100.79,3639.53 3111.00,3646.79
             3111.00,3646.79 3128.91,3660.92 3128.91,3660.92
             3128.91,3660.92 3153.00,3682.48 3153.00,3682.48
             3164.10,3689.98 3176.45,3692.46 3188.00,3698.48
             3202.34,3705.97 3218.39,3714.80 3235.00,3714.95
             3235.00,3714.95 3247.00,3714.95 3247.00,3714.95
             3247.00,3714.95 3257.00,3714.00 3257.00,3714.00
             3270.46,3713.85 3272.01,3715.28 3283.00,3722.09
             3291.67,3727.46 3300.43,3732.35 3310.00,3735.94
             3318.10,3738.97 3318.65,3737.43 3326.00,3738.17
             3326.00,3738.17 3343.00,3742.18 3343.00,3742.18
             3343.00,3742.18 3358.00,3748.06 3358.00,3748.06
             3358.00,3748.06 3381.00,3755.36 3381.00,3755.36
             3381.00,3755.36 3392.00,3759.39 3392.00,3759.39
             3392.00,3759.39 3414.00,3762.15 3414.00,3762.15
             3420.01,3762.90 3421.17,3763.92 3428.00,3764.00
             3428.00,3764.00 3460.00,3764.00 3460.00,3764.00
             3460.00,3764.00 3494.00,3767.00 3494.00,3767.00
             3502.39,3767.09 3508.71,3767.43 3517.00,3765.66
             3519.34,3765.16 3522.67,3764.88 3524.49,3763.26
             3526.37,3761.60 3526.99,3758.38 3527.26,3756.00
             3527.74,3753.81 3527.95,3752.14 3527.26,3750.00
             3524.32,3742.67 3513.74,3740.14 3507.00,3737.58
             3494.51,3732.82 3484.42,3724.42 3473.00,3717.73
             3459.48,3709.81 3443.68,3704.13 3429.00,3698.61
             3421.13,3695.66 3417.32,3696.85 3412.00,3693.39
             3412.00,3693.39 3386.00,3668.12 3386.00,3668.12
             3379.26,3662.81 3371.38,3659.49 3364.00,3655.28
             3344.21,3643.98 3345.53,3644.25 3324.00,3636.09
             3313.26,3632.02 3303.75,3627.75 3292.00,3628.01
             3292.00,3628.01 3278.00,3629.00 3278.00,3629.00
             3265.54,3629.02 3255.21,3629.11 3243.00,3625.43
             3233.92,3622.69 3226.16,3616.89 3218.00,3612.35
             3218.00,3612.35 3179.00,3592.95 3179.00,3592.95
             3179.00,3592.95 3171.00,3590.56 3171.00,3590.56
             3171.00,3590.56 3155.00,3584.24 3155.00,3584.24
             3155.00,3584.24 3144.00,3580.93 3144.00,3580.93
             3144.00,3580.93 3135.00,3576.37 3135.00,3576.37
             3125.68,3571.71 3116.49,3567.65 3109.09,3559.96
             3097.88,3548.31 3099.46,3532.53 3091.35,3521.00
             3081.39,3506.83 3056.52,3500.04 3054.18,3481.00
             3052.61,3468.17 3066.05,3466.89 3067.51,3456.00
             3067.99,3452.40 3063.71,3443.79 3062.67,3439.00
             3061.28,3432.62 3061.60,3427.21 3058.67,3421.00
             3054.94,3413.06 3049.60,3409.91 3045.34,3400.00
             3045.34,3400.00 3036.88,3370.00 3036.88,3370.00
             3033.82,3357.08 3031.34,3339.74 3048.00,3334.94
             3059.07,3331.75 3064.58,3338.44 3077.00,3337.96
             3088.54,3337.51 3102.38,3334.28 3108.47,3348.00
             3112.78,3357.72 3108.50,3366.18 3116.11,3372.58
             3119.84,3375.73 3129.79,3377.79 3135.00,3379.81
             3144.82,3383.61 3154.56,3389.19 3163.00,3395.48
             3168.94,3399.89 3173.45,3403.83 3177.64,3410.00
             3182.88,3417.72 3185.82,3425.85 3194.00,3431.30
             3199.47,3434.95 3209.76,3436.20 3216.00,3438.88
             3224.48,3442.52 3230.06,3448.68 3237.00,3454.39
             3240.36,3457.15 3246.51,3461.12 3248.15,3465.04
             3252.38,3475.16 3239.62,3477.88 3233.00,3480.60
             3230.45,3481.66 3225.55,3483.41 3226.45,3487.03
             3227.60,3491.62 3237.99,3495.54 3242.00,3497.88
             3249.37,3502.18 3255.91,3510.43 3263.00,3514.00
             3269.97,3517.52 3279.42,3516.84 3285.79,3523.21
             3293.92,3531.34 3292.86,3549.70 3312.00,3548.96
             3320.50,3548.63 3330.79,3545.70 3339.00,3547.93
             3347.72,3550.29 3353.68,3557.26 3366.00,3561.94
             3373.06,3564.61 3384.45,3565.91 3390.00,3569.80
             3398.57,3575.81 3398.30,3583.38 3404.21,3589.96
             3410.33,3596.76 3428.94,3601.50 3438.00,3600.82
             3438.00,3600.82 3467.00,3595.01 3467.00,3595.01
             3480.77,3594.70 3485.29,3599.77 3497.00,3604.55
             3497.00,3604.55 3532.00,3618.58 3532.00,3618.58
             3532.00,3618.58 3551.00,3625.99 3551.00,3625.99
             3559.28,3631.23 3560.73,3645.87 3562.39,3655.00
             3563.30,3660.03 3563.28,3665.95 3569.04,3668.09
             3576.98,3671.05 3578.45,3661.91 3585.02,3656.33
             3593.45,3649.16 3601.14,3648.85 3610.00,3644.82
             3615.99,3642.10 3619.73,3637.87 3624.00,3635.55
             3627.77,3633.51 3633.70,3632.66 3638.00,3631.80
             3646.27,3630.15 3652.49,3628.99 3661.00,3629.00
             3661.00,3629.00 3684.00,3631.00 3684.00,3631.00
             3687.39,3631.03 3690.67,3631.08 3694.00,3630.32
             3706.96,3627.35 3721.12,3613.08 3738.00,3613.08
             3749.03,3613.07 3763.30,3617.98 3772.00,3624.68
             3772.00,3624.68 3788.00,3639.82 3788.00,3639.82
             3788.00,3639.82 3800.00,3648.48 3800.00,3648.48
             3811.99,3657.39 3815.80,3663.35 3832.00,3662.99
             3832.00,3662.99 3858.00,3660.00 3858.00,3660.00
             3862.77,3659.95 3869.90,3659.39 3874.00,3661.85
             3879.91,3665.42 3881.77,3672.30 3890.00,3675.44
             3890.00,3675.44 3913.00,3678.80 3913.00,3678.80
             3927.86,3681.62 3951.36,3687.16 3966.00,3687.00
             3966.00,3687.00 3977.00,3686.04 3977.00,3686.04
             3977.00,3686.04 3999.00,3688.43 3999.00,3688.43
             4003.55,3689.20 4011.80,3691.71 4015.96,3689.67
             4022.07,3686.68 4022.63,3677.68 4029.10,3671.09
             4037.00,3663.06 4058.81,3658.13 4070.00,3658.00
             4081.81,3657.87 4100.36,3657.08 4111.00,3661.90
             4121.65,3666.73 4125.87,3677.47 4139.00,3679.68
             4139.00,3679.68 4175.00,3682.00 4175.00,3682.00
             4175.00,3682.00 4188.00,3682.96 4188.00,3682.96
             4200.25,3683.44 4204.14,3677.81 4221.00,3678.00
             4221.00,3678.00 4237.00,3679.53 4237.00,3679.53
             4237.00,3679.53 4254.00,3676.18 4254.00,3676.18
             4264.79,3675.37 4272.31,3682.11 4280.00,3688.59
             4284.23,3692.16 4289.75,3697.09 4292.33,3702.00
             4296.53,3710.01 4293.24,3719.18 4302.02,3721.03
             4312.61,3723.26 4318.98,3708.56 4331.00,3702.79
             4339.90,3698.50 4343.27,3699.75 4352.00,3698.72
             4352.00,3698.72 4384.00,3696.00 4384.00,3696.00
             4403.25,3695.76 4403.73,3680.06 4417.00,3672.53
             4423.90,3668.62 4436.46,3669.14 4446.00,3666.28
             4457.56,3662.81 4465.49,3655.71 4477.00,3652.90
             4483.73,3651.25 4490.43,3650.96 4497.00,3653.47
             4508.72,3657.93 4516.05,3667.88 4531.00,3666.82
             4550.24,3665.44 4557.24,3658.54 4574.00,3652.06
             4594.63,3644.09 4603.85,3642.03 4626.00,3642.00
             4626.00,3642.00 4667.00,3637.00 4667.00,3637.00
             4678.18,3636.88 4685.41,3639.29 4696.00,3640.72
             4696.00,3640.72 4723.00,3643.83 4723.00,3643.83
             4731.47,3644.63 4739.59,3641.08 4748.00,3641.08
             4748.00,3641.08 4774.00,3644.96 4774.00,3644.96
             4781.38,3645.25 4789.03,3642.77 4794.98,3638.37
             4797.18,3636.74 4800.14,3633.96 4800.14,3631.00
             4800.14,3625.16 4784.81,3617.44 4794.15,3610.85
             4795.03,3610.23 4795.98,3609.88 4797.00,3609.57
             4797.00,3609.57 4826.00,3602.44 4826.00,3602.44
             4826.00,3602.44 4838.00,3601.57 4838.00,3601.57
             4838.00,3601.57 4859.00,3598.18 4859.00,3598.18
             4859.00,3598.18 4881.00,3601.86 4881.00,3601.86
             4881.00,3601.86 4901.00,3601.86 4901.00,3601.86
             4901.00,3601.86 4927.00,3604.43 4927.00,3604.43
             4936.91,3602.07 4937.97,3591.66 4952.00,3585.31
             4963.11,3580.28 4975.46,3581.98 4987.00,3578.56
             5002.28,3574.04 5016.02,3564.49 5032.00,3561.62
             5047.44,3558.83 5068.31,3568.55 5086.00,3569.82
             5086.00,3569.82 5098.00,3569.00 5098.00,3569.00
             5108.82,3568.88 5118.88,3567.68 5129.00,3563.55
             5139.14,3559.41 5145.03,3550.39 5157.00,3553.79
             5163.22,3555.55 5178.46,3563.66 5181.72,3569.09
             5186.28,3576.66 5180.73,3587.94 5190.04,3592.91
             5192.55,3594.14 5195.42,3594.03 5198.00,3592.91
             5199.40,3592.43 5200.76,3591.60 5201.89,3590.61
             5209.65,3583.85 5201.58,3578.44 5201.32,3572.00
             5201.15,3568.01 5203.99,3564.86 5207.02,3562.64
             5214.92,3556.82 5232.14,3554.55 5242.00,3551.85
             5242.00,3551.85 5268.00,3542.16 5268.00,3542.16
             5275.09,3540.23 5286.76,3541.02 5290.77,3534.81
             5295.70,3527.90 5287.46,3520.79 5290.77,3509.00
             5292.58,3501.29 5300.36,3496.81 5308.00,3499.74
             5315.09,3502.46 5316.17,3510.35 5322.09,3515.79
             5328.63,3521.80 5335.78,3520.22 5340.57,3526.11
             5348.08,3535.34 5337.01,3546.03 5330.00,3551.24
             5324.37,3555.43 5317.14,3559.39 5310.00,3559.79
             5298.39,3560.45 5290.67,3550.77 5279.21,3564.01
             5277.57,3565.91 5275.80,3568.45 5275.50,3571.00
             5274.67,3577.97 5282.83,3579.92 5288.00,3581.00
             5298.42,3583.17 5312.11,3586.36 5311.39,3600.00
             5310.99,3607.62 5306.08,3612.21 5301.92,3618.00
             5295.67,3626.71 5295.58,3635.12 5283.00,3637.53
             5265.65,3640.87 5243.34,3626.60 5227.00,3624.13
             5227.00,3624.13 5197.00,3620.00 5197.00,3620.00
             5197.00,3620.00 5138.00,3626.00 5138.00,3626.00
             5122.00,3626.19 5109.98,3636.10 5095.00,3640.26
             5085.47,3642.90 5064.35,3645.66 5057.02,3651.42
             5048.63,3658.01 5049.88,3670.55 5060.00,3674.44
             5069.16,3677.96 5077.37,3674.66 5085.00,3675.09
             5091.33,3675.45 5115.14,3678.98 5121.00,3680.72
             5121.00,3680.72 5141.00,3688.08 5141.00,3688.08
             5148.74,3690.11 5157.55,3688.50 5165.00,3692.05
             5177.65,3698.07 5178.71,3716.91 5192.00,3716.74
             5199.95,3716.63 5224.55,3707.74 5234.00,3705.37
             5247.31,3702.05 5255.32,3700.98 5269.00,3701.00
             5269.00,3701.00 5283.00,3701.99 5283.00,3701.99
             5289.94,3702.14 5295.45,3701.25 5300.99,3696.66
             5306.17,3692.37 5307.93,3687.83 5314.04,3683.16
             5314.04,3683.16 5330.00,3672.33 5330.00,3672.33
             5335.75,3667.80 5338.77,3663.13 5346.00,3660.55
             5352.15,3658.35 5363.20,3658.92 5370.00,3659.00
             5387.56,3659.21 5386.18,3668.07 5393.68,3676.83
             5398.36,3682.30 5405.87,3685.40 5407.61,3693.00
             5410.06,3703.69 5402.66,3707.53 5398.96,3716.00
             5396.28,3722.16 5397.07,3729.41 5397.00,3736.00
             5396.92,3742.91 5394.50,3756.68 5389.66,3761.68
             5389.66,3761.68 5367.00,3776.15 5367.00,3776.15
             5367.00,3776.15 5335.00,3801.59 5335.00,3801.59
             5335.00,3801.59 5323.00,3812.54 5323.00,3812.54
             5323.00,3812.54 5310.00,3822.30 5310.00,3822.30
             5299.51,3831.28 5299.72,3833.71 5286.00,3840.74
             5280.86,3843.37 5273.60,3846.45 5268.00,3847.76
             5262.14,3849.15 5256.57,3849.26 5251.00,3851.80
             5251.00,3851.80 5234.00,3861.68 5234.00,3861.68
             5222.78,3867.01 5200.30,3874.85 5188.00,3875.00
             5188.00,3875.00 5176.00,3875.00 5176.00,3875.00
             5176.00,3875.00 5155.00,3876.00 5155.00,3876.00
             5155.00,3876.00 5130.00,3873.18 5130.00,3873.18
             5130.00,3873.18 5116.00,3874.91 5116.00,3874.91
             5099.56,3875.84 5097.73,3862.92 5083.00,3858.93
             5072.65,3856.12 5061.34,3859.88 5051.00,3860.00
             5051.00,3860.00 5032.00,3860.00 5032.00,3860.00
             5032.00,3860.00 5016.00,3861.00 5016.00,3861.00
             5007.66,3860.99 4993.29,3857.94 4986.23,3863.70
             4980.60,3868.28 4986.12,3872.76 4986.77,3878.00
             4987.85,3886.68 4979.59,3891.44 4972.00,3891.91
             4962.01,3892.52 4960.78,3886.82 4953.00,3888.39
             4953.00,3888.39 4940.00,3893.94 4940.00,3893.94
             4931.08,3897.35 4918.54,3900.88 4909.00,3901.00
             4909.00,3901.00 4887.00,3899.72 4887.00,3899.72
             4887.00,3899.72 4875.00,3898.09 4875.00,3898.09
             4865.40,3897.55 4853.09,3902.93 4853.08,3914.00
             4853.08,3926.87 4870.17,3933.36 4868.89,3948.00
             4868.59,3951.50 4867.28,3954.29 4864.79,3956.79
             4859.43,3962.17 4852.15,3962.99 4845.00,3963.00
             4827.72,3963.03 4821.49,3966.99 4808.00,3967.91
             4799.78,3968.47 4783.99,3965.45 4776.00,3962.98
             4769.89,3961.08 4757.41,3956.19 4753.93,3950.82
             4752.36,3948.38 4751.98,3944.84 4752.18,3942.00
             4752.18,3942.00 4753.69,3929.00 4753.69,3929.00
             4759.89,3909.74 4781.16,3913.94 4794.96,3904.15
             4800.59,3900.16 4801.12,3895.44 4804.35,3890.00
             4807.69,3884.36 4814.41,3879.61 4813.24,3874.00
             4811.33,3864.77 4795.07,3859.81 4786.59,3850.83
             4775.36,3838.95 4765.62,3813.72 4752.00,3807.56
             4745.79,3804.75 4738.42,3807.32 4732.00,3808.60
             4732.00,3808.60 4696.00,3813.91 4696.00,3813.91
             4696.00,3813.91 4680.00,3814.58 4680.00,3814.58
             4675.55,3813.53 4672.15,3809.83 4668.00,3808.08
             4663.10,3806.03 4654.72,3806.49 4652.23,3812.04
             4649.64,3817.83 4656.57,3818.47 4660.00,3819.68
             4667.10,3822.19 4678.09,3828.82 4678.89,3837.00
             4679.64,3844.74 4675.42,3847.92 4668.00,3846.48
             4657.44,3844.44 4645.92,3834.56 4638.42,3842.30
             4634.11,3846.74 4629.49,3866.60 4644.00,3870.75
             4660.46,3875.46 4662.28,3875.03 4679.00,3875.00
             4679.00,3875.00 4707.00,3872.00 4707.00,3872.00
             4707.00,3872.00 4712.00,3872.00 4712.00,3872.00
             4715.11,3872.02 4716.91,3872.01 4720.00,3872.67
             4720.00,3872.67 4724.96,3874.13 4724.96,3874.13
             4729.87,3876.31 4731.33,3881.38 4728.26,3885.83
             4726.06,3889.03 4714.55,3896.76 4712.40,3903.00
             4711.03,3906.02 4712.46,3910.76 4712.40,3914.00
             4712.89,3919.05 4710.36,3936.99 4707.30,3940.61
             4705.46,3942.79 4693.16,3949.46 4690.00,3951.03
             4676.53,3957.72 4664.31,3957.89 4650.00,3960.28
             4650.00,3960.28 4630.00,3965.12 4630.00,3965.12
             4630.00,3965.12 4613.00,3968.26 4613.00,3968.26
             4613.00,3968.26 4592.00,3972.82 4592.00,3972.82
             4592.00,3972.82 4583.00,3976.57 4583.00,3976.57
             4583.00,3976.57 4558.00,3983.85 4558.00,3983.85
             4558.00,3983.85 4548.00,3983.85 4548.00,3983.85
             4548.00,3983.85 4532.00,3985.00 4532.00,3985.00
             4532.00,3985.00 4517.00,3984.00 4517.00,3984.00
             4517.00,3984.00 4474.00,3985.00 4474.00,3985.00
             4474.00,3985.00 4460.00,3986.83 4460.00,3986.83
             4460.00,3986.83 4429.00,3990.43 4429.00,3990.43
             4429.00,3990.43 4408.00,3994.68 4408.00,3994.68
             4408.00,3994.68 4387.00,3996.09 4387.00,3996.09
             4380.74,3996.55 4381.07,3997.96 4372.00,3998.00
             4372.00,3998.00 4338.00,3998.00 4338.00,3998.00
             4331.35,3997.92 4318.01,3993.97 4311.00,3992.15
             4311.00,3992.15 4297.00,3989.26 4297.00,3989.26
             4297.00,3989.26 4277.00,3983.16 4277.00,3983.16
             4277.00,3983.16 4259.00,3983.16 4259.00,3983.16
             4246.00,3983.02 4247.00,3985.14 4238.00,3986.78
             4229.63,3988.11 4222.38,3988.07 4214.00,3986.78
             4214.00,3986.78 4190.00,3977.05 4190.00,3977.05
             4190.00,3977.05 4182.00,3975.49 4182.00,3975.49
             4182.00,3975.49 4173.00,3973.15 4173.00,3973.15
             4173.00,3973.15 4149.00,3973.15 4149.00,3973.15
             4149.00,3973.15 4106.00,3980.71 4106.00,3980.71
             4090.22,3982.77 4073.91,3982.02 4058.00,3982.00
             4058.00,3982.00 4042.00,3981.00 4042.00,3981.00
             4028.21,3980.94 4023.99,3981.79 4010.00,3978.82
             4006.02,3977.97 4004.64,3976.51 4001.00,3975.24
             4001.00,3975.24 3987.00,3971.21 3987.00,3971.21
             3987.00,3971.21 3967.00,3966.49 3967.00,3966.49
             3962.37,3964.51 3949.04,3952.88 3945.00,3948.99
             3941.22,3945.36 3936.67,3940.70 3931.00,3940.65
             3928.78,3940.63 3926.14,3941.64 3924.00,3942.28
             3913.68,3945.36 3909.12,3947.65 3901.02,3955.17
             3897.87,3958.08 3894.59,3963.25 3891.90,3964.86
             3888.29,3967.02 3883.08,3966.99 3879.00,3967.00
             3879.00,3967.00 3839.00,3967.00 3839.00,3967.00
             3839.00,3967.00 3824.00,3968.00 3824.00,3968.00
             3824.00,3968.00 3809.00,3968.00 3809.00,3968.00
             3809.00,3968.00 3793.00,3969.00 3793.00,3969.00
             3793.00,3969.00 3761.00,3969.00 3761.00,3969.00
             3761.00,3969.00 3750.00,3968.09 3750.00,3968.09
             3732.40,3966.89 3726.00,3967.43 3709.00,3960.29
             3698.28,3955.79 3682.90,3946.49 3675.11,3937.99
             3670.74,3933.23 3671.26,3931.27 3668.20,3927.01
             3663.95,3921.10 3656.32,3916.54 3649.00,3916.09
             3642.87,3915.71 3636.94,3918.12 3631.00,3919.33
             3631.00,3919.33 3615.00,3921.00 3615.00,3921.00
             3615.00,3921.00 3606.00,3921.00 3606.00,3921.00
             3606.00,3921.00 3593.00,3922.82 3593.00,3922.82
             3593.00,3922.82 3584.00,3922.01 3584.00,3922.01
             3574.99,3921.81 3575.58,3923.12 3569.00,3923.91
             3569.00,3923.91 3550.00,3923.91 3550.00,3923.91
             3541.09,3924.01 3536.34,3925.61 3528.00,3926.87
             3528.00,3926.87 3512.00,3928.46 3512.00,3928.46
             3503.69,3929.96 3495.55,3932.90 3487.00,3933.00
             3478.42,3933.10 3474.79,3932.92 3466.00,3934.29
             3457.59,3935.61 3459.78,3936.98 3449.00,3937.00
             3449.00,3937.00 3432.00,3937.00 3432.00,3937.00
             3432.00,3937.00 3411.00,3938.00 3411.00,3938.00
             3411.00,3938.00 3396.00,3937.00 3396.00,3937.00
             3396.00,3937.00 3360.00,3937.00 3360.00,3937.00
             3347.12,3936.98 3342.45,3933.15 3331.00,3930.67
             3331.00,3930.67 3316.00,3927.46 3316.00,3927.46
             3316.00,3927.46 3304.00,3925.41 3304.00,3925.41
             3304.00,3925.41 3289.00,3919.93 3289.00,3919.93
             3289.00,3919.93 3271.00,3915.39 3271.00,3915.39
             3271.00,3915.39 3255.00,3908.44 3255.00,3908.44
             3255.00,3908.44 3239.00,3904.30 3239.00,3904.30
             3239.00,3904.30 3230.00,3903.48 3230.00,3903.48
             3230.00,3903.48 3217.00,3899.67 3217.00,3899.67
             3217.00,3899.67 3192.00,3895.55 3192.00,3895.55
             3192.00,3895.55 3162.00,3885.71 3162.00,3885.71
             3162.00,3885.71 3143.00,3880.46 3143.00,3880.46
             3143.00,3880.46 3130.00,3878.38 3130.00,3878.38
             3130.00,3878.38 3121.00,3875.03 3121.00,3875.03
             3112.17,3872.21 3102.79,3870.48 3095.01,3865.09
             3095.01,3865.09 3084.99,3855.76 3084.99,3855.76
             3084.99,3855.76 3064.00,3840.95 3064.00,3840.95
             3057.93,3835.60 3050.80,3827.38 3044.00,3823.53
             3037.53,3819.87 3013.19,3815.28 3005.00,3814.28
             3005.00,3814.28 2998.00,3813.68 2998.00,3813.68
             2987.03,3811.87 2982.80,3808.18 2968.00,3808.00
             2968.00,3808.00 2950.00,3808.00 2950.00,3808.00
             2950.00,3808.00 2928.00,3806.17 2928.00,3806.17
             2921.31,3805.52 2913.43,3805.48 2907.00,3803.56
             2900.53,3801.63 2899.27,3799.64 2894.00,3796.99
             2894.00,3796.99 2870.00,3784.50 2870.00,3784.50
             2865.07,3781.70 2847.21,3772.10 2844.21,3769.23
             2838.18,3763.45 2837.18,3750.83 2835.32,3743.00
             2834.18,3738.23 2827.61,3724.61 2825.04,3720.00
             2820.51,3711.85 2814.30,3709.48 2807.04,3704.33
             2800.42,3699.63 2796.31,3694.19 2788.00,3690.53
             2778.87,3686.51 2759.58,3688.14 2749.00,3688.00
             2740.51,3687.88 2737.37,3684.89 2730.00,3681.45
             2730.00,3681.45 2710.00,3671.75 2710.00,3671.75
             2702.94,3667.09 2698.38,3661.51 2690.00,3656.95
             2690.00,3656.95 2667.00,3648.24 2667.00,3648.24
             2667.00,3648.24 2648.00,3635.95 2648.00,3635.95
             2648.00,3635.95 2610.00,3616.25 2610.00,3616.25
             2610.00,3616.25 2596.83,3604.09 2596.83,3604.09
             2596.83,3604.09 2585.00,3594.91 2585.00,3594.91
             2585.00,3594.91 2562.91,3573.29 2562.91,3573.29
             2556.44,3567.89 2550.46,3567.86 2544.00,3562.66
             2537.23,3557.22 2523.93,3545.08 2517.00,3541.32
             2505.63,3535.17 2497.00,3534.58 2486.00,3530.24
             2486.00,3530.24 2468.00,3521.55 2468.00,3521.55
             2468.00,3521.55 2460.00,3519.40 2460.00,3519.40
             2460.00,3519.40 2453.00,3516.54 2453.00,3516.54
             2453.00,3516.54 2424.00,3507.90 2424.00,3507.90
             2424.00,3507.90 2397.00,3502.38 2397.00,3502.38
             2397.00,3502.38 2381.00,3494.60 2381.00,3494.60
             2381.00,3494.60 2372.00,3491.74 2372.00,3491.74
             2372.00,3491.74 2356.00,3483.98 2356.00,3483.98
             2348.28,3480.31 2343.69,3479.53 2336.09,3473.79
             2336.09,3473.79 2328.96,3467.51 2328.96,3467.51
             2328.96,3467.51 2320.00,3461.47 2320.00,3461.47
             2309.43,3453.34 2299.64,3442.66 2291.73,3432.00
             2284.83,3422.70 2279.02,3412.87 2279.00,3401.00
             2278.99,3397.11 2278.75,3389.46 2279.53,3386.00
             2280.63,3381.11 2283.23,3377.47 2282.66,3372.00
             2281.65,3362.25 2271.97,3353.35 2262.00,3354.34
             2253.89,3355.14 2251.20,3358.44 2245.00,3362.34
             2245.00,3362.34 2233.00,3368.82 2233.00,3368.82
             2222.13,3373.82 2220.86,3371.04 2213.00,3372.32
             2204.59,3373.70 2203.15,3376.22 2193.00,3375.99
             2184.18,3375.78 2166.40,3371.47 2160.32,3364.90
             2155.03,3359.16 2153.82,3352.81 2147.96,3347.09
             2147.96,3347.09 2126.00,3330.83 2126.00,3330.83
             2126.00,3330.83 2104.00,3307.29 2104.00,3307.29
             2096.55,3300.80 2085.20,3295.16 2080.35,3287.00
             2073.93,3276.19 2076.23,3265.00 2067.91,3252.00
             2067.91,3252.00 2055.87,3235.00 2055.87,3235.00
             2051.69,3227.78 2049.72,3220.62 2044.48,3214.00
             2039.31,3207.45 2031.62,3203.34 2027.36,3196.00
             2021.37,3185.67 2025.00,3179.82 2019.44,3171.00
             2013.46,3161.51 2000.43,3154.21 1992.53,3144.00
             1992.53,3144.00 1976.33,3119.00 1976.33,3119.00
             1976.33,3119.00 1966.17,3108.00 1966.17,3108.00
             1961.84,3103.14 1954.24,3091.90 1951.49,3086.00
             1948.12,3078.77 1948.22,3074.23 1946.50,3067.00
             1946.50,3067.00 1938.55,3042.00 1938.55,3042.00
             1938.55,3042.00 1927.34,3022.00 1927.34,3022.00
             1923.67,3013.42 1924.88,3008.53 1923.33,3001.00
             1921.12,2990.20 1917.74,2985.96 1918.01,2974.00
             1918.25,2963.54 1921.98,2958.62 1923.54,2950.00
             1924.84,2942.79 1922.72,2937.63 1925.95,2930.00
             1930.39,2919.52 1939.85,2913.67 1938.67,2900.00
             1937.64,2888.00 1930.67,2876.12 1935.48,2864.00
             1938.78,2855.68 1946.29,2849.69 1950.66,2842.00
             1952.68,2838.45 1954.79,2834.12 1953.26,2830.00
             1952.29,2827.39 1950.20,2825.39 1947.98,2823.80
             1939.16,2817.44 1931.94,2820.06 1923.00,2818.38
             1916.92,2817.24 1909.76,2813.89 1904.00,2811.42
             1896.10,2808.04 1889.26,2805.04 1890.11,2795.00
             1890.81,2786.67 1899.89,2778.91 1896.39,2771.01
             1893.35,2764.16 1883.82,2761.92 1878.01,2758.04
             1872.83,2754.57 1870.56,2749.99 1869.46,2744.00
             1868.14,2736.79 1867.99,2729.30 1868.00,2722.00
             1868.01,2713.89 1870.97,2705.72 1863.74,2699.43
             1862.29,2698.17 1860.93,2697.58 1859.00,2697.55
             1855.64,2697.50 1848.86,2701.36 1839.00,2700.96
             1825.81,2700.43 1810.96,2686.42 1807.87,2674.00
             1805.81,2666.43 1807.82,2659.40 1807.87,2652.00
             1807.87,2652.00 1807.09,2637.00 1807.09,2637.00
             1807.67,2626.84 1814.65,2603.67 1819.93,2595.00
             1825.65,2585.59 1833.95,2580.53 1838.89,2573.00
             1843.20,2566.45 1842.94,2561.25 1844.65,2554.00
             1846.55,2545.99 1848.90,2542.78 1849.00,2534.00
             1849.16,2519.87 1843.18,2509.82 1832.96,2500.17
             1820.99,2488.86 1803.95,2478.58 1807.81,2459.00
             1807.81,2459.00 1813.49,2441.00 1813.49,2441.00
             1813.49,2441.00 1821.12,2415.00 1821.12,2415.00
             1823.50,2405.98 1824.93,2391.27 1828.90,2384.00
             1835.35,2372.21 1842.85,2370.29 1845.98,2355.00
             1846.80,2351.02 1846.87,2347.69 1844.86,2344.00
             1840.07,2335.15 1830.34,2331.65 1822.00,2327.22
             1822.00,2327.22 1799.00,2312.32 1799.00,2312.32
             1791.35,2308.77 1784.38,2309.73 1776.00,2305.10
             1768.89,2301.17 1767.23,2297.30 1761.96,2292.04
             1757.75,2287.84 1752.20,2283.92 1747.00,2281.04
             1743.26,2278.96 1739.30,2277.44 1735.00,2277.09
             1730.65,2276.74 1724.87,2277.41 1721.74,2273.58
             1716.81,2267.57 1724.38,2259.81 1727.45,2255.00
             1732.85,2246.55 1733.36,2237.53 1736.53,2232.00
             1739.98,2226.00 1744.79,2224.37 1746.76,2220.00
             1748.40,2217.16 1747.94,2213.76 1746.76,2211.00
             1740.17,2198.41 1732.09,2209.18 1723.00,2210.50
             1716.45,2211.44 1708.06,2207.39 1703.00,2203.47
             1694.55,2196.93 1691.91,2189.21 1685.91,2183.04
             1677.81,2174.72 1670.87,2175.80 1663.26,2161.00
             1659.01,2152.73 1654.92,2142.83 1652.00,2134.00
             1649.89,2127.61 1648.64,2120.69 1644.89,2115.00
             1639.35,2106.57 1631.98,2104.05 1626.18,2097.91
             1619.34,2090.66 1616.79,2079.73 1617.01,2070.00
             1617.01,2070.00 1619.67,2048.00 1619.67,2048.00
             1619.67,2048.00 1617.58,2037.00 1617.58,2037.00
             1617.58,2037.00 1612.94,2020.00 1612.94,2020.00
             1611.46,2016.08 1608.69,2011.28 1609.26,2007.00
             1610.74,1996.06 1628.56,2000.69 1624.38,1991.00
             1618.79,1978.04 1605.79,1974.76 1594.00,1970.19
             1586.38,1967.24 1579.04,1963.75 1571.00,1962.01
             1560.45,1959.73 1556.22,1962.35 1546.00,1954.47
             1538.30,1948.54 1529.68,1938.01 1525.87,1929.00
             1525.87,1929.00 1520.62,1913.00 1520.62,1913.00
             1520.62,1913.00 1513.20,1901.00 1513.20,1901.00
             1508.35,1892.96 1502.53,1879.45 1502.10,1870.00
             1501.86,1864.77 1503.42,1859.60 1505.78,1855.00
             1507.30,1852.05 1510.56,1847.33 1510.24,1844.01
             1509.70,1838.40 1502.39,1837.28 1497.80,1830.96
             1493.06,1824.44 1493.91,1815.66 1494.00,1808.00
             1494.00,1808.00 1497.09,1780.00 1497.09,1780.00
             1497.01,1775.66 1498.94,1766.01 1497.09,1763.10
             1495.16,1759.78 1489.33,1757.60 1486.00,1755.21
             1480.62,1751.36 1477.86,1746.99 1471.00,1742.55
             1467.08,1740.01 1461.40,1738.25 1459.18,1733.96
             1455.56,1726.96 1463.75,1720.21 1466.62,1713.00
             1469.19,1706.07 1465.46,1702.32 1466.62,1696.00
             1467.06,1694.28 1467.73,1692.49 1468.72,1691.04
             1477.10,1678.78 1492.12,1689.13 1499.00,1689.80
             1514.56,1691.33 1518.19,1675.10 1522.39,1670.04
             1526.76,1664.78 1531.64,1663.62 1538.00,1662.44 Z
           M 1831.00,1835.38
           C 1833.99,1835.06 1837.00,1834.79 1840.00,1835.38
             1854.92,1838.01 1853.51,1857.19 1858.54,1871.00
             1861.36,1878.73 1866.37,1882.32 1866.91,1891.00
             1867.27,1896.88 1865.50,1901.21 1862.23,1906.00
             1859.86,1909.46 1855.90,1913.47 1856.38,1918.00
             1856.84,1922.35 1865.65,1932.44 1869.09,1935.33
             1870.40,1936.43 1872.48,1937.95 1874.00,1938.72
             1883.62,1943.62 1889.51,1933.78 1897.00,1929.53
             1901.56,1926.95 1906.83,1926.06 1912.00,1926.00
             1922.69,1925.88 1931.47,1927.23 1941.00,1932.51
             1949.64,1937.30 1956.94,1945.00 1965.00,1950.84
             1975.79,1958.66 1987.87,1959.68 1998.00,1967.53
             2008.34,1975.53 2017.29,1992.29 2026.29,2001.91
             2034.61,2010.81 2046.47,2013.52 2051.91,2023.00
             2055.33,2028.95 2055.05,2034.56 2053.92,2041.00
             2052.93,2046.63 2050.75,2054.36 2047.36,2058.99
             2042.05,2066.25 2019.98,2077.29 2011.00,2079.32
             2002.93,2081.14 1997.08,2078.67 1993.52,2071.00
             1988.02,2059.17 1987.30,2040.07 1973.83,2026.09
             1971.22,2023.38 1966.75,2019.75 1963.00,2018.97
             1959.19,2018.18 1952.08,2020.42 1948.00,2021.20
             1942.69,2022.21 1937.38,2022.06 1932.00,2022.00
             1923.73,2021.90 1904.34,2017.70 1897.00,2014.03
             1890.41,2010.74 1886.09,2006.10 1879.00,2003.75
             1867.66,1999.99 1863.38,2005.26 1849.00,2001.76
             1836.93,1998.82 1823.01,1986.44 1814.00,1978.09
             1809.11,1973.55 1805.99,1971.69 1801.76,1966.00
             1796.32,1958.68 1793.27,1951.00 1792.00,1942.00
             1791.05,1935.29 1791.76,1926.28 1787.58,1921.04
             1783.88,1916.39 1774.54,1912.70 1769.00,1908.79
             1752.02,1896.83 1733.92,1874.61 1748.79,1854.00
             1755.17,1845.15 1766.36,1841.01 1777.00,1841.01
             1777.00,1841.01 1791.00,1841.91 1791.00,1841.91
             1791.00,1841.91 1831.00,1835.38 1831.00,1835.38 Z
           M 6597.00,2016.45
           C 6605.41,2015.73 6617.53,2019.55 6620.99,2028.00
             6624.77,2037.21 6616.85,2052.70 6609.91,2058.61
             6607.12,2060.98 6602.63,2062.97 6599.00,2063.50
             6586.16,2065.34 6572.75,2050.72 6575.33,2036.00
             6577.31,2024.66 6586.35,2018.45 6597.00,2016.45 Z
           M 6393.00,2032.65
           C 6403.36,2030.77 6405.45,2038.50 6413.00,2043.45
             6424.24,2050.82 6430.85,2049.16 6437.13,2064.00
             6438.95,2068.31 6440.20,2073.30 6439.91,2078.00
             6439.63,2082.53 6438.24,2086.00 6436.24,2090.00
             6430.11,2102.26 6419.37,2110.91 6405.00,2109.82
             6402.69,2109.64 6398.18,2108.68 6396.00,2107.90
             6375.45,2100.51 6388.34,2080.32 6386.83,2066.00
             6385.54,2053.78 6376.31,2039.69 6393.00,2032.65 Z
           M 6338.00,2198.48
           C 6344.93,2197.81 6353.75,2200.26 6358.81,2205.21
             6365.39,2211.64 6365.93,2222.22 6358.81,2228.47
             6353.53,2233.11 6345.76,2234.14 6339.00,2233.99
             6333.20,2233.85 6324.22,2231.97 6320.74,2226.90
             6316.01,2220.00 6322.43,2207.11 6328.09,2202.56
             6331.20,2200.06 6334.23,2199.30 6338.00,2198.48 Z
           M 6421.00,2225.53
           C 6432.08,2224.35 6432.99,2232.28 6433.00,2241.00
             6433.01,2247.81 6432.75,2249.14 6434.21,2256.00
             6437.57,2271.82 6447.50,2286.98 6432.96,2300.90
             6430.82,2302.94 6428.69,2304.42 6426.00,2305.65
             6422.63,2307.19 6418.71,2308.10 6415.00,2307.82
             6408.97,2307.36 6401.95,2304.40 6396.00,2305.33
             6386.21,2306.85 6381.86,2312.64 6375.00,2318.83
             6366.66,2326.36 6354.91,2333.99 6356.20,2347.00
             6356.73,2352.43 6362.20,2361.08 6364.28,2368.00
             6367.69,2379.38 6364.65,2400.15 6357.89,2409.96
             6353.75,2415.98 6346.69,2418.96 6341.00,2423.24
             6333.00,2429.26 6326.39,2433.75 6317.00,2437.55
             6307.72,2441.31 6301.51,2441.71 6292.00,2443.42
             6292.00,2443.42 6269.00,2446.96 6269.00,2446.96
             6269.00,2446.96 6259.00,2446.96 6259.00,2446.96
             6259.00,2446.96 6247.00,2447.99 6247.00,2447.99
             6247.00,2447.99 6234.00,2447.00 6234.00,2447.00
             6217.24,2446.92 6188.99,2440.49 6183.93,2422.00
             6182.29,2416.04 6183.59,2409.92 6184.81,2404.00
             6185.87,2398.80 6187.66,2394.51 6190.47,2390.00
             6193.87,2384.51 6197.68,2381.21 6203.00,2377.69
             6207.70,2374.59 6215.21,2369.87 6216.53,2364.00
             6217.19,2361.06 6215.69,2356.89 6214.86,2354.00
             6212.80,2346.82 6210.91,2342.81 6210.17,2335.00
             6208.75,2320.13 6221.89,2294.37 6232.04,2284.01
             6240.46,2275.42 6248.38,2272.87 6258.00,2266.94
             6264.47,2262.94 6270.99,2257.62 6279.00,2257.72
             6288.47,2257.83 6297.61,2265.09 6311.00,2263.83
             6328.91,2262.15 6345.65,2255.66 6363.00,2251.37
             6363.00,2251.37 6389.00,2247.47 6389.00,2247.47
             6396.77,2245.62 6399.78,2240.24 6405.01,2235.01
             6410.47,2229.57 6413.58,2227.48 6421.00,2225.53 Z
           M 6473.11,2240.88
           C 6475.44,2240.27 6476.47,2239.81 6478.99,2240.88
             6486.41,2243.51 6496.65,2264.83 6485.89,2270.83
             6480.60,2273.78 6475.36,2270.50 6472.48,2265.96
             6468.00,2258.92 6465.91,2246.83 6473.11,2240.88 Z
           M 6468.00,2373.61
           C 6481.30,2371.10 6487.24,2381.01 6484.47,2393.00
             6483.22,2398.45 6479.84,2402.54 6476.72,2407.00
             6468.68,2418.51 6469.15,2422.98 6454.00,2423.00
             6454.00,2423.00 6441.00,2423.00 6441.00,2423.00
             6437.41,2422.99 6433.23,2423.23 6430.11,2421.15
             6422.14,2415.82 6425.81,2402.54 6430.11,2396.00
             6436.27,2386.63 6443.61,2384.66 6453.00,2380.22
             6458.39,2377.67 6462.19,2375.49 6468.00,2373.61 Z
           M 2086.00,2389.44
           C 2094.65,2388.75 2105.01,2391.04 2109.77,2399.01
             2114.84,2407.49 2111.98,2422.08 2101.00,2423.79
             2089.79,2425.54 2083.39,2417.08 2075.00,2417.08
             2066.29,2417.09 2058.20,2428.16 2049.06,2422.26
             2039.92,2416.42 2041.91,2401.87 2049.06,2395.33
             2054.58,2390.35 2060.04,2390.01 2067.00,2390.00
             2067.00,2390.00 2086.00,2389.44 2086.00,2389.44 Z
           M 5971.00,2825.47
           C 5985.67,2823.42 6001.98,2826.32 6012.91,2837.10
             6017.73,2841.85 6019.02,2846.37 6022.61,2850.96
             6025.32,2854.44 6031.09,2858.37 6035.00,2860.48
             6044.99,2865.89 6057.10,2862.88 6068.00,2863.00
             6082.03,2863.17 6089.44,2870.48 6096.40,2882.00
             6104.32,2895.12 6107.18,2909.36 6098.24,2923.00
             6087.40,2939.54 6073.29,2944.86 6057.00,2953.69
             6051.41,2956.72 6041.25,2961.39 6037.39,2966.04
             6032.43,2972.01 6028.25,2983.68 6025.39,2991.00
             6025.39,2991.00 6015.76,3011.00 6015.76,3011.00
             6013.94,3014.58 6012.06,3018.88 6009.61,3022.00
             5999.87,3034.43 5987.95,3041.74 5975.00,3050.14
             5969.42,3053.75 5963.15,3056.09 5958.67,3061.17
             5953.40,3067.14 5951.89,3072.80 5947.91,3079.00
             5939.22,3092.54 5930.76,3100.81 5916.00,3107.15
             5916.00,3107.15 5897.00,3115.55 5897.00,3115.55
             5897.00,3115.55 5886.00,3119.09 5886.00,3119.09
             5886.00,3119.09 5875.00,3123.42 5875.00,3123.42
             5865.69,3126.94 5857.11,3131.26 5847.00,3131.91
             5842.53,3132.20 5839.25,3131.56 5835.00,3130.28
             5820.43,3125.89 5814.68,3115.68 5815.01,3101.00
             5815.29,3088.85 5820.78,3082.17 5825.74,3072.00
             5829.37,3064.55 5836.40,3047.00 5835.91,3039.00
             5835.36,3030.07 5831.06,3026.34 5831.00,3014.00
             5830.94,3000.92 5830.45,2990.77 5837.23,2979.00
             5845.15,2965.25 5851.02,2964.44 5854.91,2955.00
             5858.28,2946.81 5858.03,2941.09 5859.46,2933.00
             5862.03,2918.52 5864.90,2905.98 5872.34,2893.00
             5876.08,2886.47 5880.32,2882.52 5886.00,2877.75
             5889.45,2874.86 5895.45,2869.46 5899.00,2867.35
             5899.00,2867.35 5919.00,2858.11 5919.00,2858.11
             5919.00,2858.11 5942.00,2845.05 5942.00,2845.05
             5950.47,2839.39 5955.57,2829.14 5971.00,2825.47 Z
           M 2418.00,2879.40
           C 2415.97,2880.05 2414.88,2880.28 2413.11,2881.65
             2402.99,2889.47 2416.07,2896.98 2422.00,2901.37
             2424.70,2903.37 2429.33,2907.16 2432.89,2906.58
             2438.18,2905.72 2435.71,2898.25 2434.64,2895.00
             2431.87,2886.57 2428.22,2878.26 2418.00,2879.40 Z
           M 2315.00,2927.00
           C 2314.87,2921.35 2313.17,2913.60 2309.36,2909.23
             2306.06,2905.43 2298.27,2904.72 2294.74,2908.65
             2291.72,2912.00 2293.29,2916.93 2296.15,2919.79
             2300.68,2924.33 2308.74,2926.69 2315.00,2927.00 Z
           M 2343.15,2962.91
           C 2338.82,2965.25 2340.40,2968.81 2341.08,2973.00
             2342.54,2981.94 2341.90,2990.97 2342.00,3000.00
             2342.12,3010.33 2344.53,3013.66 2340.07,3025.00
             2336.72,3033.54 2330.62,3038.82 2331.53,3044.00
             2333.18,3053.34 2347.81,3053.92 2355.00,3054.00
             2355.00,3054.00 2385.00,3057.58 2385.00,3057.58
             2392.87,3058.65 2396.92,3058.16 2405.00,3061.23
             2408.90,3062.72 2412.73,3064.86 2415.96,3067.52
             2428.22,3077.61 2430.16,3094.35 2427.72,3109.00
             2426.38,3116.97 2423.30,3124.77 2424.17,3133.00
             2425.24,3143.09 2430.68,3147.99 2433.91,3157.00
             2437.48,3166.96 2434.38,3172.24 2439.56,3177.45
             2442.28,3180.19 2450.15,3182.86 2454.00,3184.40
             2461.11,3187.24 2469.33,3191.39 2477.00,3191.91
             2477.00,3191.91 2498.00,3190.00 2498.00,3190.00
             2517.69,3189.78 2525.48,3199.66 2539.00,3211.93
             2539.00,3211.93 2557.96,3228.29 2557.96,3228.29
             2562.33,3232.31 2565.26,3237.16 2566.38,3243.00
             2567.17,3247.07 2566.89,3252.28 2568.51,3256.00
             2571.00,3261.72 2577.28,3264.27 2580.52,3272.00
             2585.36,3283.51 2583.59,3304.99 2573.90,3313.66
             2569.38,3317.70 2563.87,3318.93 2558.00,3319.00
             2550.83,3319.08 2538.97,3317.87 2533.00,3321.72
             2530.67,3323.23 2528.25,3325.75 2526.63,3328.00
             2516.20,3342.51 2524.82,3352.31 2538.00,3359.85
             2541.21,3361.69 2544.36,3363.75 2548.00,3364.63
             2559.09,3367.30 2569.14,3367.52 2576.04,3357.00
             2580.23,3350.60 2581.83,3340.33 2588.00,3339.07
             2592.25,3338.19 2599.58,3344.63 2604.00,3346.68
             2611.72,3350.26 2625.44,3352.09 2634.00,3352.00
             2650.62,3351.81 2665.88,3343.99 2673.74,3329.00
             2676.93,3322.90 2679.08,3316.73 2676.39,3310.00
             2671.22,3297.09 2655.23,3288.63 2652.03,3279.00
             2650.69,3274.95 2652.93,3270.01 2653.99,3266.00
             2655.18,3261.47 2655.01,3259.57 2655.00,3255.00
             2654.99,3244.49 2652.68,3227.17 2642.91,3221.09
             2638.51,3218.35 2632.03,3218.01 2627.00,3218.00
             2627.00,3218.00 2616.00,3218.00 2616.00,3218.00
             2616.00,3218.00 2602.00,3218.91 2602.00,3218.91
             2590.91,3218.21 2588.76,3216.21 2579.00,3213.43
             2574.73,3212.21 2568.77,3211.51 2565.44,3208.57
             2557.60,3201.67 2555.89,3188.89 2556.00,3179.00
             2556.10,3170.60 2561.03,3160.71 2558.28,3153.00
             2554.14,3141.44 2541.07,3140.81 2531.17,3129.99
             2526.43,3124.81 2518.38,3111.57 2515.62,3105.00
             2510.92,3093.84 2511.22,3086.94 2501.00,3078.32
             2491.71,3070.49 2483.52,3069.37 2475.00,3063.64
             2470.62,3060.69 2465.24,3054.95 2460.00,3054.51
             2450.79,3053.73 2437.45,3066.89 2424.00,3059.44
             2421.78,3058.21 2420.15,3056.79 2418.46,3054.91
             2418.46,3054.91 2407.99,3042.00 2407.99,3042.00
             2401.66,3035.59 2396.58,3032.66 2390.92,3025.00
             2382.28,3013.29 2375.92,2998.65 2368.66,2986.00
             2363.99,2977.85 2359.73,2975.60 2353.00,2969.71
             2349.56,2966.71 2347.75,2963.73 2343.15,2962.91 Z
           M 2327.00,3330.29
           C 2323.75,3330.82 2318.79,3331.47 2316.22,3333.56
             2314.12,3335.27 2313.22,3337.60 2312.15,3340.00
             2311.04,3342.53 2309.78,3345.27 2309.33,3348.00
             2308.57,3352.66 2311.24,3364.81 2313.44,3369.00
             2318.45,3378.56 2328.54,3383.87 2339.00,3384.00
             2339.00,3384.00 2346.00,3384.00 2346.00,3384.00
             2355.03,3383.89 2362.84,3378.54 2363.80,3369.00
             2364.36,3363.47 2361.66,3358.55 2358.87,3354.00
             2352.55,3343.71 2340.33,3329.36 2327.00,3330.29 Z
           M 2669.00,3385.29
           C 2659.70,3386.82 2647.61,3393.32 2640.00,3392.67
             2640.00,3392.67 2618.00,3388.17 2618.00,3388.17
             2618.00,3388.17 2602.00,3389.00 2602.00,3389.00
             2602.00,3389.00 2586.00,3388.00 2586.00,3388.00
             2580.72,3387.94 2572.56,3387.35 2568.04,3390.09
             2560.31,3394.77 2562.68,3404.05 2567.53,3409.91
             2569.56,3412.36 2572.46,3414.60 2575.00,3416.53
             2579.69,3420.07 2588.16,3426.91 2593.00,3429.34
             2593.00,3429.34 2616.00,3436.67 2616.00,3436.67
             2625.24,3439.75 2635.12,3443.13 2645.00,3441.70
             2651.62,3440.75 2668.10,3434.22 2672.91,3429.79
             2672.91,3429.79 2689.49,3409.00 2689.49,3409.00
             2691.60,3406.27 2694.12,3402.47 2694.64,3399.00
             2696.37,3387.51 2677.07,3384.70 2669.00,3385.29 Z
           M 5705.00,3403.46
           C 5717.46,3401.78 5721.53,3407.00 5731.00,3413.04
             5733.83,3414.84 5736.94,3416.09 5740.00,3417.42
             5743.93,3419.13 5747.53,3421.35 5752.00,3420.77
             5758.90,3419.89 5762.69,3413.35 5768.00,3409.65
             5772.65,3406.40 5781.33,3404.26 5787.00,3404.04
             5795.00,3403.73 5805.19,3407.16 5810.61,3413.18
             5810.61,3413.18 5815.82,3421.00 5815.82,3421.00
             5819.24,3426.48 5821.73,3432.84 5817.91,3438.90
             5814.18,3444.83 5798.54,3447.29 5792.00,3446.82
             5792.00,3446.82 5781.00,3445.08 5781.00,3445.08
             5781.00,3445.08 5771.00,3445.08 5771.00,3445.08
             5771.00,3445.08 5760.00,3444.04 5760.00,3444.04
             5760.00,3444.04 5747.00,3444.04 5747.00,3444.04
             5747.00,3444.04 5705.00,3449.99 5705.00,3449.99
             5700.13,3449.87 5690.97,3448.12 5687.00,3445.35
             5677.57,3438.77 5676.49,3426.20 5682.70,3417.00
             5687.89,3409.30 5696.22,3405.42 5705.00,3403.46 Z
           M 2422.00,3410.33
           C 2415.24,3411.93 2411.89,3413.87 2407.09,3419.00
             2404.11,3422.19 2401.53,3425.84 2400.11,3430.00
             2396.72,3439.87 2399.56,3454.20 2409.00,3459.64
             2413.75,3462.37 2429.09,3463.06 2435.00,3463.00
             2435.00,3463.00 2444.00,3462.17 2444.00,3462.17
             2451.97,3461.41 2458.11,3461.59 2458.90,3451.00
             2459.98,3436.64 2445.99,3416.77 2433.00,3411.48
             2429.07,3409.88 2426.12,3409.88 2422.00,3410.33 Z
           M 2741.00,3470.30
           C 2730.41,3472.54 2730.38,3476.59 2726.18,3485.00
             2726.18,3485.00 2720.09,3497.00 2720.09,3497.00
             2718.10,3501.52 2715.57,3507.19 2718.85,3511.78
             2721.98,3516.16 2728.21,3515.99 2733.00,3516.00
             2733.00,3516.00 2752.00,3516.00 2752.00,3516.00
             2752.00,3516.00 2771.00,3515.00 2771.00,3515.00
             2771.00,3515.00 2789.00,3513.17 2789.00,3513.17
             2789.00,3513.17 2804.00,3511.68 2804.00,3511.68
             2808.24,3510.94 2819.67,3508.46 2822.77,3506.03
             2828.00,3501.96 2826.09,3495.66 2820.96,3492.53
             2810.44,3486.12 2793.94,3486.02 2782.00,3486.00
             2758.82,3485.96 2761.05,3468.29 2741.00,3470.30 Z
           M 3300.00,3492.57
           C 3306.04,3492.01 3319.34,3495.19 3323.77,3499.39
             3332.57,3507.72 3322.91,3516.39 3314.00,3517.70
             3307.86,3518.61 3299.68,3517.54 3295.22,3512.87
             3288.46,3505.78 3290.26,3495.56 3300.00,3492.57 Z
           M 5153.00,3516.24
           C 5155.23,3516.16 5156.71,3515.95 5159.00,3516.24
             5164.57,3516.19 5168.70,3519.26 5165.26,3525.00
             5162.95,3528.85 5150.26,3542.17 5146.00,3543.09
             5138.78,3544.65 5134.90,3536.42 5137.23,3529.00
             5139.67,3521.20 5145.58,3518.23 5153.00,3516.24 Z
           M 5535.00,3552.42
           C 5541.63,3551.62 5550.75,3551.47 5557.00,3553.93
             5572.17,3559.88 5575.34,3571.56 5596.00,3580.58
             5596.00,3580.58 5619.89,3590.70 5619.89,3590.70
             5621.47,3591.88 5622.54,3593.18 5623.26,3595.02
             5627.05,3604.68 5615.03,3614.15 5611.48,3623.00
             5608.92,3629.36 5610.20,3633.71 5604.67,3639.91
             5601.53,3643.43 5594.18,3647.85 5590.00,3650.67
             5578.42,3658.47 5569.80,3665.65 5555.00,3665.99
             5548.92,3666.12 5544.66,3665.51 5539.00,3663.13
             5534.38,3661.18 5529.20,3657.63 5524.00,3658.38
             5518.75,3659.13 5511.64,3665.32 5507.00,3668.30
             5499.80,3672.93 5492.63,3675.30 5484.00,3674.96
             5477.07,3674.69 5467.64,3672.48 5462.09,3668.21
             5456.41,3663.85 5447.57,3648.91 5445.09,3642.00
             5445.09,3642.00 5439.18,3613.00 5439.18,3613.00
             5438.60,3605.25 5441.92,3599.46 5447.04,3594.00
             5449.28,3591.60 5454.66,3587.06 5452.72,3583.31
             5451.64,3581.24 5449.05,3581.06 5447.00,3581.06
             5447.00,3581.06 5440.00,3581.91 5440.00,3581.91
             5440.00,3581.91 5430.00,3581.91 5430.00,3581.91
             5423.47,3581.92 5409.16,3580.40 5406.99,3572.99
             5404.42,3564.18 5419.94,3560.39 5426.00,3559.44
             5431.31,3558.60 5437.80,3558.79 5443.00,3560.16
             5447.42,3561.31 5452.71,3563.94 5457.00,3563.87
             5461.08,3563.80 5472.53,3560.05 5484.00,3560.00
             5484.00,3560.00 5490.00,3560.00 5490.00,3560.00
             5499.94,3559.95 5509.33,3556.70 5519.00,3554.80
             5519.00,3554.80 5535.00,3552.42 5535.00,3552.42 Z
           M 5356.00,3581.44
           C 5360.42,3580.88 5364.98,3580.68 5368.96,3583.09
             5376.51,3587.65 5375.89,3597.55 5371.20,3603.96
             5367.46,3609.06 5361.05,3611.43 5355.00,3612.37
             5344.55,3614.00 5327.77,3605.65 5334.17,3593.00
             5337.89,3585.66 5348.54,3582.84 5356.00,3581.44 Z
           M 5460.00,3707.47
           C 5466.12,3706.67 5478.49,3708.99 5473.13,3717.96
             5470.39,3722.54 5463.06,3725.45 5458.00,3726.38
             5451.51,3727.58 5440.77,3724.77 5445.87,3716.02
             5448.79,3711.01 5454.67,3708.73 5460.00,3707.47 Z
           M 3639.04,3730.47
           C 3633.68,3732.64 3632.12,3736.70 3626.00,3738.90
             3626.00,3738.90 3618.00,3741.04 3618.00,3741.04
             3618.00,3741.04 3587.00,3751.45 3587.00,3751.45
             3580.29,3754.19 3574.36,3756.61 3575.20,3765.00
             3575.91,3772.11 3584.42,3781.14 3591.00,3783.36
             3596.06,3785.07 3600.94,3784.58 3606.00,3785.18
             3606.00,3785.18 3614.00,3786.91 3614.00,3786.91
             3614.00,3786.91 3630.00,3786.91 3630.00,3786.91
             3630.00,3786.91 3650.00,3788.68 3650.00,3788.68
             3660.11,3789.43 3672.86,3781.51 3679.83,3774.71
             3683.82,3770.82 3687.14,3765.83 3685.57,3760.00
             3683.93,3753.89 3677.09,3750.94 3672.00,3748.22
             3660.37,3741.99 3651.33,3729.49 3639.04,3730.47 Z
           M 4105.00,3769.28
           C 4095.90,3770.60 4085.91,3770.47 4078.03,3775.81
             4070.29,3781.04 4071.15,3789.06 4078.03,3794.58
             4078.03,3794.58 4107.77,3807.70 4107.77,3807.70
             4115.88,3814.32 4100.15,3825.44 4115.00,3827.87
             4115.00,3827.87 4120.00,3827.87 4120.00,3827.87
             4129.44,3827.58 4136.43,3822.83 4152.00,3823.00
             4152.00,3823.00 4174.00,3825.00 4174.00,3825.00
             4174.00,3825.00 4197.00,3825.00 4197.00,3825.00
             4215.59,3825.03 4230.82,3837.29 4248.00,3837.96
             4252.56,3838.14 4253.91,3837.56 4258.00,3837.17
             4268.25,3836.19 4273.70,3836.48 4284.00,3833.00
             4288.42,3831.50 4294.21,3829.81 4293.72,3824.00
             4293.34,3819.46 4288.51,3814.18 4285.00,3811.63
             4280.01,3808.02 4269.99,3804.83 4264.00,3802.14
             4264.00,3802.14 4247.00,3793.45 4247.00,3793.45
             4238.47,3789.97 4217.60,3782.32 4209.00,3782.04
             4196.05,3781.63 4186.52,3786.85 4171.00,3783.91
             4171.00,3783.91 4156.00,3779.33 4156.00,3779.33
             4139.09,3773.70 4123.12,3767.60 4105.00,3769.28 Z
           M 3284.00,3804.31
           C 3278.52,3805.31 3275.98,3806.30 3271.00,3808.76
             3268.27,3810.10 3265.39,3811.46 3263.02,3813.39
             3254.31,3820.43 3256.31,3827.68 3265.04,3833.44
             3275.30,3840.22 3289.29,3836.83 3298.99,3843.13
             3304.52,3846.73 3307.17,3853.01 3311.62,3857.71
             3317.82,3864.28 3333.77,3871.70 3343.00,3870.80
             3356.09,3869.53 3358.22,3857.59 3367.01,3850.38
             3373.95,3844.69 3383.70,3842.50 3389.28,3835.71
             3392.75,3831.49 3392.88,3826.39 3388.77,3822.53
             3386.91,3820.77 3383.40,3818.89 3381.00,3817.93
             3369.68,3813.40 3363.63,3819.55 3354.00,3818.82
             3354.00,3818.82 3329.00,3812.89 3329.00,3812.89
             3329.00,3812.89 3306.00,3809.10 3306.00,3809.10
             3298.72,3807.33 3291.62,3803.88 3284.00,3804.31 Z
           M 4589.00,3848.53
           C 4581.01,3849.89 4579.04,3853.64 4573.72,3858.79
             4564.86,3867.37 4557.90,3864.71 4556.47,3871.04
             4554.81,3878.39 4562.78,3879.51 4568.00,3878.68
             4578.20,3877.04 4593.83,3873.23 4597.44,3887.00
             4598.03,3889.25 4598.05,3892.65 4597.98,3895.00
             4597.75,3902.90 4591.61,3909.79 4584.00,3911.70
             4579.34,3912.87 4570.76,3913.36 4569.47,3919.04
             4567.48,3927.87 4581.20,3929.43 4587.00,3928.18
             4595.53,3926.34 4598.41,3922.11 4605.00,3917.80
             4605.00,3917.80 4623.00,3907.12 4623.00,3907.12
             4626.70,3904.55 4631.28,3901.91 4631.84,3897.00
             4632.59,3890.29 4626.53,3887.66 4623.43,3883.83
             4621.35,3881.27 4621.10,3878.78 4619.52,3876.00
             4619.52,3876.00 4612.09,3865.00 4612.09,3865.00
             4610.39,3862.33 4608.33,3857.45 4606.51,3855.53
             4602.69,3851.50 4594.41,3849.02 4589.00,3848.53 Z" />
</svg>
