<?xml version="1.0" encoding="UTF-8" standalone="no"?>
<!DOCTYPE svg PUBLIC "-//W3C//DTD SVG 20010904//EN"
              "http://www.w3.org/TR/2001/REC-SVG-20010904/DTD/svg10.dtd">

<svg xmlns="http://www.w3.org/2000/svg"
     width="124.972in" height="62.4722in"
     viewBox="0 0 8998 4498">
  <path id="Selection #2"
        fill="none" stroke="black" stroke-width="1"
        d="M 1824.00,2147.65
           C 1838.57,2144.63 1843.50,2155.86 1846.96,2168.00
             1849.32,2176.27 1848.52,2185.37 1839.00,2188.35
             1830.70,2190.95 1820.14,2185.27 1816.14,2178.00
             1814.14,2174.37 1814.02,2170.03 1814.00,2166.00
             1813.96,2157.07 1814.84,2151.53 1824.00,2147.65 Z
           M 1898.00,2249.52
           C 1903.63,2248.62 1911.78,2248.45 1917.00,2250.92
             1927.94,2256.09 1934.36,2270.30 1926.89,2280.91
             1920.50,2290.00 1904.48,2292.87 1894.00,2293.00
             1894.00,2293.00 1888.00,2293.00 1888.00,2293.00
             1877.35,2292.87 1863.91,2287.97 1865.11,2275.00
             1865.62,2269.45 1868.92,2266.52 1873.01,2263.21
             1880.71,2256.99 1888.37,2252.10 1898.00,2249.52 Z
           M 1908.00,2360.56
           C 1921.86,2360.07 1928.14,2371.21 1938.00,2372.02
             1946.99,2372.76 1950.99,2364.07 1966.00,2364.00
             1977.87,2363.95 1978.31,2365.35 1989.00,2369.00
             1993.67,2370.59 1998.16,2371.49 2000.91,2376.04
             2003.60,2380.48 2003.06,2387.88 2003.00,2393.00
             2003.00,2393.00 2001.96,2408.00 2001.96,2408.00
             2001.96,2408.00 2001.96,2424.00 2001.96,2424.00
             2001.96,2424.00 2001.00,2436.00 2001.00,2436.00
             2001.00,2436.00 1999.83,2461.00 1999.83,2461.00
             1999.08,2467.85 1993.74,2480.25 1994.37,2485.00
             1995.22,2491.50 2001.22,2496.17 2004.62,2503.00
             2007.27,2508.31 2008.85,2519.98 2008.99,2526.00
             2009.30,2540.08 2002.56,2544.35 1989.00,2543.49
             1974.94,2542.59 1960.55,2537.52 1948.00,2531.25
             1941.97,2528.23 1935.72,2525.15 1931.21,2519.98
             1924.34,2512.12 1925.79,2504.22 1918.79,2496.00
             1918.79,2496.00 1906.67,2483.99 1906.67,2483.99
             1901.85,2478.01 1899.15,2471.79 1895.75,2465.00
             1888.67,2450.83 1884.64,2442.31 1885.01,2426.00
             1885.41,2408.66 1889.49,2406.39 1893.11,2392.00
             1893.11,2392.00 1897.22,2370.00 1897.22,2370.00
             1899.19,2363.98 1901.97,2361.84 1908.00,2360.56 Z
           M 2028.00,2549.65
           C 2040.50,2547.07 2050.59,2554.69 2059.00,2563.00
             2071.04,2574.91 2069.91,2575.21 2078.01,2589.00
             2086.02,2602.63 2091.66,2611.55 2091.66,2628.00
             2091.66,2640.44 2084.16,2656.63 2090.41,2668.00
             2096.25,2678.58 2113.41,2680.74 2124.00,2684.02
             2141.63,2689.49 2141.39,2692.54 2154.00,2703.71
             2158.23,2707.46 2165.07,2712.06 2167.55,2717.00
             2172.33,2726.52 2164.65,2735.23 2155.00,2735.90
             2143.99,2736.68 2129.73,2726.90 2120.43,2739.02
             2115.30,2745.69 2113.35,2772.18 2128.00,2773.08
             2134.08,2773.45 2139.05,2769.65 2148.00,2770.04
             2155.21,2770.36 2159.88,2774.21 2166.00,2777.56
             2171.58,2780.63 2178.35,2782.29 2182.78,2787.10
             2186.49,2791.14 2187.53,2796.86 2188.88,2802.00
             2190.88,2809.57 2193.74,2817.02 2192.89,2825.00
             2192.05,2832.94 2184.83,2836.43 2183.85,2844.00
             2183.09,2849.92 2186.78,2854.81 2192.00,2857.20
             2192.00,2857.20 2205.00,2861.09 2205.00,2861.09
             2212.32,2863.72 2228.70,2872.58 2233.90,2878.04
             2238.78,2883.17 2239.99,2888.16 2246.04,2893.83
             2254.02,2901.32 2257.92,2900.54 2267.96,2911.00
             2274.00,2917.29 2278.23,2925.06 2285.00,2930.67
             2296.79,2940.44 2308.99,2938.90 2318.53,2955.00
             2324.79,2965.59 2326.94,2983.78 2327.00,2996.00
             2327.00,2996.00 2327.96,3008.00 2327.96,3008.00
             2328.20,3014.09 2326.89,3020.54 2324.19,3026.00
             2321.67,3031.10 2317.60,3036.18 2317.11,3042.00
             2316.25,3052.14 2325.65,3059.77 2334.00,3063.68
             2347.69,3070.09 2379.78,3071.83 2395.00,3081.56
             2408.33,3090.08 2406.86,3105.25 2405.91,3119.00
             2405.67,3122.45 2404.92,3124.37 2405.18,3128.00
             2406.00,3139.49 2411.77,3154.83 2404.36,3164.99
             2398.56,3172.94 2389.00,3174.64 2382.01,3180.38
             2375.45,3185.77 2372.60,3193.89 2368.40,3201.00
             2365.66,3205.62 2359.97,3213.39 2363.02,3218.89
             2366.84,3225.78 2378.05,3222.85 2387.00,3227.38
             2391.89,3229.85 2394.67,3233.06 2396.95,3238.00
             2399.15,3242.76 2400.17,3248.88 2406.02,3250.42
             2410.23,3251.53 2413.58,3249.56 2415.72,3245.96
             2417.51,3242.96 2420.00,3230.46 2424.36,3223.00
             2429.68,3213.90 2439.39,3213.12 2449.00,3213.00
             2454.69,3212.94 2460.36,3213.40 2466.00,3214.18
             2479.58,3216.05 2483.22,3229.37 2480.24,3241.00
             2480.24,3241.00 2474.05,3257.00 2474.05,3257.00
             2474.05,3257.00 2468.95,3273.00 2468.95,3273.00
             2468.95,3273.00 2462.20,3289.00 2462.20,3289.00
             2460.77,3292.66 2455.54,3307.89 2456.21,3311.00
             2457.30,3315.98 2463.27,3318.09 2466.96,3320.93
             2472.84,3325.44 2476.42,3332.53 2475.90,3340.00
             2475.34,3348.09 2467.09,3359.84 2458.00,3358.38
             2444.65,3356.23 2443.02,3339.54 2443.00,3329.00
             2442.98,3313.60 2437.23,3316.05 2433.88,3306.00
             2431.79,3299.87 2434.32,3294.95 2433.88,3289.00
             2433.51,3283.44 2429.10,3272.86 2422.13,3278.45
             2417.27,3282.34 2418.65,3287.46 2417.26,3291.00
             2414.53,3297.98 2406.60,3299.22 2400.00,3298.96
             2381.49,3298.24 2369.94,3287.48 2354.00,3280.86
             2349.35,3278.93 2336.62,3276.34 2334.31,3274.30
             2327.74,3268.49 2339.51,3257.63 2328.98,3253.60
             2325.51,3252.27 2319.59,3253.68 2316.00,3254.40
             2307.48,3256.10 2295.01,3260.77 2287.00,3259.82
             2280.10,3258.99 2272.48,3255.24 2267.00,3251.10
             2262.94,3248.04 2258.77,3243.46 2254.00,3241.85
             2246.61,3239.36 2240.56,3244.53 2230.00,3242.67
             2223.84,3241.59 2218.19,3237.03 2213.00,3233.69
             2213.00,3233.69 2196.00,3223.25 2196.00,3223.25
             2190.86,3219.56 2185.79,3215.48 2182.48,3210.00
             2182.48,3210.00 2172.90,3190.00 2172.90,3190.00
             2172.90,3190.00 2155.44,3168.00 2155.44,3168.00
             2155.44,3168.00 2140.22,3139.00 2140.22,3139.00
             2140.22,3139.00 2129.43,3121.00 2129.43,3121.00
             2129.43,3121.00 2119.55,3103.00 2119.55,3103.00
             2119.55,3103.00 2098.40,3075.00 2098.40,3075.00
             2098.40,3075.00 2090.96,3051.00 2090.96,3051.00
             2090.96,3051.00 2069.58,3015.00 2069.58,3015.00
             2057.72,2995.96 2045.98,2992.85 2040.48,2979.00
             2038.11,2973.04 2039.08,2960.83 2039.00,2954.00
             2038.82,2939.31 2030.10,2937.23 2029.10,2927.00
             2027.86,2914.24 2034.89,2906.55 2033.81,2897.00
             2032.61,2886.31 2024.07,2881.91 2024.00,2867.00
             2023.95,2856.05 2021.48,2842.38 2017.92,2832.00
             2012.94,2817.47 2008.81,2815.88 2009.00,2799.00
             2009.00,2799.00 2014.00,2760.00 2014.00,2760.00
             2014.11,2749.92 2013.92,2745.87 2011.09,2736.00
             2011.09,2736.00 2006.53,2723.00 2006.53,2723.00
             2006.53,2723.00 2004.83,2704.00 2004.83,2704.00
             2004.06,2696.28 2002.89,2696.82 2003.00,2687.00
             2003.08,2680.05 2005.85,2669.92 2007.63,2663.00
             2008.67,2658.96 2010.48,2654.18 2009.77,2650.00
             2008.04,2639.80 1993.73,2638.41 1991.39,2628.00
             1989.80,2620.91 1994.78,2610.60 1997.40,2604.00
             2004.11,2587.10 2009.61,2557.37 2028.00,2549.65 Z
           M 2288.04,2648.74
           C 2306.50,2644.27 2295.89,2665.14 2310.00,2670.86
             2310.00,2670.86 2336.00,2677.07 2336.00,2677.07
             2343.26,2679.91 2347.96,2685.66 2354.00,2686.97
             2359.85,2688.25 2366.02,2684.65 2375.00,2685.04
             2383.31,2685.40 2401.77,2694.09 2406.28,2701.00
             2408.68,2704.69 2409.13,2709.70 2408.96,2714.00
             2408.68,2721.06 2405.76,2733.24 2398.96,2736.56
             2392.82,2739.80 2387.06,2734.80 2381.02,2736.56
             2378.09,2737.22 2375.26,2739.64 2376.40,2742.96
             2376.98,2744.65 2378.58,2746.06 2380.04,2746.99
             2389.23,2752.86 2395.34,2743.30 2404.99,2749.85
             2414.95,2756.62 2416.04,2770.52 2419.69,2781.00
             2422.55,2789.20 2425.89,2793.97 2426.00,2803.00
             2426.13,2814.44 2423.53,2818.41 2421.40,2829.00
             2420.30,2834.45 2419.51,2842.34 2416.78,2847.00
             2414.24,2851.32 2409.54,2855.18 2406.18,2859.00
             2406.18,2859.00 2397.20,2871.00 2397.20,2871.00
             2390.76,2879.16 2379.58,2889.45 2389.34,2899.79
             2393.33,2904.01 2404.97,2907.73 2411.00,2911.47
             2418.51,2916.13 2421.09,2921.60 2429.00,2926.12
             2441.88,2933.49 2450.01,2930.16 2463.00,2930.00
             2467.28,2929.95 2471.91,2929.71 2476.00,2931.11
             2482.06,2933.18 2486.23,2937.49 2493.00,2939.56
             2500.94,2941.99 2501.59,2940.36 2508.00,2940.59
             2508.00,2940.59 2532.00,2943.13 2532.00,2943.13
             2538.71,2944.14 2550.17,2948.30 2556.00,2947.81
             2569.40,2946.70 2578.46,2936.89 2593.00,2944.90
             2605.02,2951.53 2615.32,2968.21 2614.99,2982.00
             2614.86,2987.38 2613.55,2991.30 2610.96,2996.00
             2609.07,2999.43 2605.57,3003.89 2606.36,3008.00
             2607.18,3012.31 2611.47,3014.43 2615.00,3016.24
             2621.65,3019.66 2628.95,3022.23 2632.99,3029.00
             2638.35,3037.96 2632.72,3047.62 2631.16,3056.00
             2630.91,3058.47 2630.97,3062.41 2631.16,3065.00
             2631.16,3065.00 2632.29,3082.00 2632.29,3082.00
             2632.29,3082.00 2634.82,3097.00 2634.82,3097.00
             2634.80,3103.34 2631.58,3107.68 2628.78,3113.00
             2624.78,3120.61 2623.15,3127.87 2615.99,3133.47
             2612.25,3136.39 2607.67,3138.03 2603.00,3138.70
             2585.36,3141.25 2577.24,3130.54 2564.00,3122.23
             2555.61,3116.96 2548.84,3115.65 2542.63,3107.00
             2536.08,3097.86 2534.67,3085.80 2527.62,3077.00
             2519.89,3067.34 2509.07,3064.47 2504.53,3054.00
             2502.60,3049.55 2503.06,3045.68 2503.00,3041.00
             2502.92,3034.93 2502.09,3032.60 2497.90,3028.00
             2495.63,3025.52 2492.93,3023.04 2490.00,3021.36
             2479.03,3015.12 2465.07,3020.49 2455.00,3026.15
             2449.45,3029.27 2443.48,3033.45 2437.00,3033.90
             2431.79,3034.27 2427.74,3032.68 2423.00,3030.80
             2406.98,3024.43 2402.56,3018.55 2394.69,3004.00
             2394.69,3004.00 2383.22,2982.00 2383.22,2982.00
             2374.93,2966.39 2368.76,2966.38 2361.53,2957.00
             2355.64,2949.37 2354.35,2940.80 2348.67,2934.00
             2342.73,2926.88 2337.02,2925.45 2331.93,2917.00
             2329.22,2912.51 2326.79,2905.21 2326.17,2900.00
             2325.72,2896.21 2325.19,2887.05 2323.69,2884.00
             2319.24,2874.98 2309.25,2876.04 2300.52,2865.00
             2300.52,2865.00 2288.26,2847.00 2288.26,2847.00
             2284.31,2841.54 2280.33,2837.48 2277.76,2831.00
             2273.56,2820.39 2276.72,2814.35 2269.74,2800.00
             2263.62,2787.42 2253.33,2782.01 2254.04,2767.00
             2254.70,2752.99 2266.46,2747.39 2278.00,2743.34
             2283.94,2741.26 2293.46,2738.04 2292.51,2730.00
             2292.11,2726.61 2288.82,2721.61 2286.67,2719.00
             2281.89,2713.20 2276.37,2708.18 2269.00,2706.16
             2259.99,2703.69 2247.38,2706.49 2237.33,2695.82
             2228.51,2686.46 2229.65,2670.33 2246.00,2671.04
             2261.78,2671.73 2265.87,2692.01 2279.79,2676.91
             2289.79,2666.05 2274.55,2656.53 2288.04,2648.74 Z
           M 2464.00,2865.53
           C 2473.88,2864.01 2477.51,2869.51 2484.00,2876.00
             2493.14,2885.13 2509.47,2899.84 2492.00,2910.52
             2489.91,2911.80 2487.39,2912.92 2485.00,2913.47
             2469.75,2916.99 2458.92,2907.44 2453.45,2894.00
             2448.45,2881.72 2449.79,2869.77 2464.00,2865.53 Z
           M 2762.00,3374.57
           C 2774.01,3372.67 2782.06,3383.35 2784.33,3394.00
             2785.66,3400.24 2784.82,3407.43 2778.96,3411.15
             2775.79,3413.15 2771.63,3413.07 2768.00,3412.99
             2763.59,3412.88 2759.55,3412.18 2756.39,3408.78
             2751.36,3403.35 2751.42,3386.22 2755.09,3380.02
             2757.01,3376.76 2758.65,3375.89 2762.00,3374.57 Z
           M 2718.00,3415.53
           C 2725.05,3414.37 2732.61,3415.19 2737.44,3421.10
             2743.65,3428.69 2743.70,3449.76 2728.00,3453.47
             2716.09,3456.29 2705.27,3443.90 2704.20,3433.00
             2703.29,3423.77 2709.88,3418.06 2718.00,3415.53 Z
           M 2876.00,3521.42
           C 2891.78,3519.50 2904.56,3521.98 2915.83,3534.04
             2915.83,3534.04 2931.04,3554.00 2931.04,3554.00
             2942.63,3566.12 2954.17,3569.14 2963.83,3579.09
             2975.67,3591.28 2978.52,3602.51 2986.04,3609.96
             2998.10,3621.91 3009.80,3613.25 3023.00,3622.22
             3023.00,3622.22 3036.00,3632.45 3036.00,3632.45
             3036.00,3632.45 3053.00,3641.43 3053.00,3641.43
             3060.58,3645.77 3075.08,3655.53 3082.00,3660.89
             3082.00,3660.89 3109.00,3685.53 3109.00,3685.53
             3119.73,3692.19 3128.97,3692.26 3140.00,3696.62
             3140.00,3696.62 3163.00,3709.22 3163.00,3709.22
             3163.00,3709.22 3207.00,3722.33 3207.00,3722.33
             3213.92,3724.64 3222.49,3727.95 3227.47,3733.44
             3237.01,3743.95 3227.98,3760.10 3216.00,3764.15
             3213.28,3765.07 3209.87,3765.06 3207.00,3764.99
             3197.18,3764.75 3194.92,3760.64 3188.00,3758.13
             3188.00,3758.13 3173.00,3755.48 3173.00,3755.48
             3167.10,3754.05 3159.65,3749.39 3155.00,3745.54
             3146.44,3738.43 3139.95,3722.37 3126.72,3723.95
             3120.84,3724.65 3113.45,3731.14 3108.00,3734.10
             3100.18,3738.35 3085.90,3742.89 3077.00,3743.00
             3056.57,3743.24 3059.27,3738.81 3043.00,3733.52
             3032.62,3730.14 3028.37,3732.78 3018.01,3724.76
             3008.98,3717.76 2996.08,3700.42 2980.00,3691.79
             2966.55,3684.58 2965.07,3690.47 2955.00,3689.89
             2948.70,3689.53 2943.69,3685.41 2937.00,3684.32
             2931.04,3683.36 2925.65,3685.83 2919.00,3685.99
             2902.00,3686.37 2892.16,3675.73 2879.00,3667.08
             2879.00,3667.08 2857.00,3653.33 2857.00,3653.33
             2851.34,3648.88 2846.89,3642.50 2840.00,3640.11
             2833.57,3637.87 2820.06,3639.20 2812.00,3635.45
             2802.33,3630.95 2798.41,3619.74 2787.00,3610.47
             2779.63,3604.48 2761.52,3596.81 2752.00,3592.32
             2748.23,3590.54 2739.90,3587.47 2737.04,3585.35
             2730.97,3580.85 2729.09,3573.17 2729.00,3566.00
             2729.00,3566.00 2729.00,3557.00 2729.00,3557.00
             2729.01,3553.27 2728.84,3548.46 2731.09,3545.27
             2732.87,3542.74 2737.11,3541.11 2740.00,3540.22
             2747.17,3538.00 2759.00,3537.89 2767.00,3536.84
             2767.00,3536.84 2775.00,3535.30 2775.00,3535.30
             2780.29,3534.54 2781.43,3535.61 2788.00,3533.84
             2798.66,3530.97 2811.11,3526.02 2822.00,3526.00
             2822.00,3526.00 2846.00,3526.00 2846.00,3526.00
             2856.02,3525.95 2866.09,3522.92 2876.00,3521.42 Z
           M 4883.00,3729.56
           C 4895.24,3729.41 4896.27,3740.74 4905.00,3746.27
             4912.01,3750.70 4924.16,3746.25 4933.00,3748.79
             4946.16,3752.57 4957.02,3771.01 4970.00,3769.44
             4982.86,3767.90 4981.11,3754.97 4990.04,3749.14
             4996.03,3745.23 5006.96,3745.40 5014.00,3744.91
             5014.00,3744.91 5033.00,3743.51 5033.00,3743.51
             5048.42,3744.49 5051.04,3746.54 5064.00,3748.56
             5064.00,3748.56 5083.00,3750.20 5083.00,3750.20
             5088.11,3751.12 5093.58,3755.10 5092.34,3760.96
             5091.35,3765.61 5086.99,3766.54 5083.00,3767.24
             5083.00,3767.24 5074.00,3768.79 5074.00,3768.79
             5070.30,3769.85 5056.86,3776.71 5053.00,3778.86
             5053.00,3778.86 5030.00,3793.49 5030.00,3793.49
             5030.00,3793.49 4993.00,3808.52 4993.00,3808.52
             4986.45,3810.20 4960.59,3813.92 4954.00,3814.00
             4954.00,3814.00 4934.00,3812.08 4934.00,3812.08
             4934.00,3812.08 4925.00,3812.08 4925.00,3812.08
             4925.00,3812.08 4906.00,3810.77 4906.00,3810.77
             4893.54,3811.15 4890.16,3813.26 4876.00,3810.77
             4868.48,3809.09 4860.91,3804.48 4854.00,3801.31
             4854.00,3801.31 4831.00,3791.24 4831.00,3791.24
             4822.57,3786.97 4808.62,3776.01 4815.09,3765.04
             4817.62,3760.75 4822.60,3758.95 4827.00,3757.20
             4832.64,3754.97 4840.09,3752.47 4846.00,3751.21
             4850.85,3750.18 4857.74,3749.52 4862.00,3747.32
             4871.74,3742.27 4869.82,3732.34 4883.00,3729.56 Z
           M 4711.00,3736.52
           C 4722.61,3734.69 4729.25,3739.92 4736.96,3748.00
             4741.91,3753.19 4745.25,3758.06 4740.85,3764.96
             4734.65,3774.70 4721.41,3778.14 4711.00,3780.88
             4702.19,3783.21 4696.41,3785.20 4687.00,3784.99
             4687.00,3784.99 4670.00,3783.17 4670.00,3783.17
             4662.00,3782.40 4655.58,3782.98 4648.00,3779.19
             4638.22,3774.30 4634.30,3767.79 4643.09,3759.10
             4652.55,3749.76 4670.40,3749.11 4683.00,3746.12
             4683.00,3746.12 4711.00,3736.52 4711.00,3736.52 Z
           M 3313.00,3758.46
           C 3321.50,3757.29 3344.90,3757.44 3351.96,3762.00
             3357.82,3765.80 3358.68,3772.81 3352.89,3777.15
             3347.97,3780.84 3341.86,3781.06 3336.00,3781.00
             3336.00,3781.00 3321.00,3779.09 3321.00,3779.09
             3316.25,3778.76 3306.16,3779.13 3302.11,3776.83
             3295.45,3773.04 3296.80,3762.07 3313.00,3758.46 Z
           M 4548.00,3770.42
           C 4553.00,3769.82 4563.21,3770.64 4568.00,3772.04
             4573.18,3773.56 4578.60,3776.60 4584.00,3776.89
             4590.34,3777.24 4594.34,3774.34 4600.00,3772.78
             4603.89,3771.71 4610.55,3771.21 4612.98,3775.23
             4616.26,3780.65 4608.59,3792.11 4605.86,3797.00
             4601.64,3804.57 4597.39,3812.37 4589.00,3816.04
             4589.00,3816.04 4567.00,3821.06 4567.00,3821.06
             4557.07,3824.82 4551.53,3830.43 4540.00,3829.96
             4533.85,3829.71 4527.20,3826.95 4521.00,3825.67
             4521.00,3825.67 4501.00,3822.79 4501.00,3822.79
             4496.42,3821.79 4492.48,3820.47 4490.17,3815.98
             4486.77,3809.37 4492.14,3799.84 4497.09,3795.47
             4502.21,3790.95 4509.94,3788.06 4516.00,3784.57
             4522.63,3780.76 4528.94,3775.17 4536.00,3772.47
             4539.94,3770.96 4543.88,3771.01 4548.00,3770.42 Z
           M 3390.06,3778.74
           C 3409.47,3773.93 3417.22,3789.22 3434.00,3790.82
             3442.30,3791.62 3453.85,3786.02 3467.00,3786.00
             3467.00,3786.00 3492.00,3786.76 3492.00,3786.76
             3504.66,3786.98 3510.99,3783.54 3525.00,3786.76
             3525.00,3786.76 3534.00,3789.12 3534.00,3789.12
             3544.42,3791.87 3564.59,3796.14 3562.63,3811.00
             3561.00,3823.40 3542.26,3827.65 3531.00,3835.75
             3526.35,3839.09 3521.36,3844.09 3516.00,3845.89
             3502.02,3850.57 3498.02,3831.09 3484.00,3821.96
             3477.54,3817.76 3470.13,3816.38 3463.00,3813.92
             3463.00,3813.92 3439.00,3803.92 3439.00,3803.92
             3439.00,3803.92 3420.00,3801.68 3420.00,3801.68
             3415.89,3800.91 3410.27,3797.99 3406.00,3796.44
             3400.88,3794.57 3393.15,3793.28 3389.15,3789.61
             3384.92,3785.73 3385.28,3781.66 3390.06,3778.74 Z
           M 3934.00,3810.44
           C 3946.27,3808.86 3958.73,3810.86 3971.00,3811.00
             3982.50,3811.14 4008.39,3816.31 4019.00,3820.46
             4019.00,3820.46 4034.00,3827.77 4034.00,3827.77
             4034.00,3827.77 4055.00,3836.25 4055.00,3836.25
             4055.00,3836.25 4074.00,3846.13 4074.00,3846.13
             4074.00,3846.13 4092.00,3853.31 4092.00,3853.31
             4103.47,3859.57 4112.85,3867.94 4127.00,3868.91
             4127.00,3868.91 4157.00,3866.00 4157.00,3866.00
             4166.39,3865.99 4177.70,3867.22 4187.00,3868.75
             4195.49,3870.16 4206.46,3872.71 4207.77,3883.00
             4208.91,3891.89 4201.30,3896.03 4195.00,3900.05
             4181.99,3908.36 4172.07,3918.15 4155.00,3912.53
             4146.30,3909.67 4139.57,3900.68 4132.00,3900.28
             4127.67,3900.05 4122.00,3902.97 4118.00,3904.55
             4113.10,3906.49 4106.27,3907.82 4101.00,3907.49
             4101.00,3907.49 4081.00,3906.00 4081.00,3906.00
             4081.00,3906.00 4052.00,3906.00 4052.00,3906.00
             4052.00,3906.00 4027.00,3908.00 4027.00,3908.00
             4027.00,3908.00 4017.00,3907.05 4017.00,3907.05
             4017.00,3907.05 4001.00,3907.05 4001.00,3907.05
             4001.00,3907.05 3988.00,3908.00 3988.00,3908.00
             3971.22,3908.19 3971.20,3906.86 3956.00,3902.03
             3956.00,3902.03 3940.00,3896.57 3940.00,3896.57
             3940.00,3896.57 3927.00,3890.23 3927.00,3890.23
             3927.00,3890.23 3908.00,3885.30 3908.00,3885.30
             3901.96,3883.13 3897.49,3879.53 3893.04,3874.99
             3886.91,3868.74 3876.87,3858.41 3878.21,3849.00
             3879.14,3842.58 3883.90,3838.45 3889.00,3835.08
             3889.00,3835.08 3913.00,3820.80 3913.00,3820.80
             3921.17,3815.84 3924.26,3812.33 3934.00,3810.44 Z
           M 3618.00,3818.50
           C 3632.96,3817.64 3637.85,3836.60 3630.72,3843.72
             3627.28,3847.16 3622.52,3847.09 3618.00,3846.99
             3609.73,3846.80 3591.28,3841.96 3597.31,3830.04
             3600.40,3823.95 3611.62,3819.82 3618.00,3818.50 Z
           M 3808.00,3834.52
           C 3824.10,3831.97 3831.74,3837.54 3845.00,3845.15
             3850.68,3848.41 3857.51,3851.83 3861.61,3857.01
             3865.02,3861.33 3865.11,3864.75 3864.99,3870.00
             3864.72,3880.84 3857.34,3888.09 3847.00,3890.33
             3835.91,3892.74 3827.69,3887.13 3817.00,3887.00
             3806.12,3886.88 3800.63,3886.21 3790.00,3884.00
             3785.85,3883.14 3781.46,3882.65 3778.23,3879.61
             3774.75,3876.34 3774.45,3871.46 3774.06,3867.00
             3773.45,3862.57 3772.00,3856.14 3774.06,3852.04
             3776.37,3847.89 3781.89,3845.78 3786.00,3844.00
             3793.88,3840.59 3799.61,3836.77 3808.00,3834.52 Z
           M 4344.00,3856.46
           C 4358.35,3854.48 4363.07,3857.86 4376.00,3861.11
             4376.00,3861.11 4389.00,3863.42 4389.00,3863.42
             4396.73,3864.53 4403.62,3863.71 4409.32,3870.18
             4414.04,3875.55 4417.91,3886.08 4410.87,3891.28
             4407.87,3893.49 4400.91,3894.28 4397.00,3895.44
             4397.00,3895.44 4380.00,3901.48 4380.00,3901.48
             4376.63,3902.20 4369.70,3902.04 4366.00,3902.00
             4357.10,3901.89 4339.88,3899.35 4333.01,3893.66
             4325.88,3887.75 4318.98,3874.63 4325.43,3866.02
             4329.93,3860.01 4337.03,3858.01 4344.00,3856.46 Z" />
</svg>
